/* XPM */
static char *result[] = {
/* columns rows colors chars-per-pixel */
"50 50 209 2 ",
"   c gray7",
".  c #131313",
"X  c #151515",
"o  c #161616",
"O  c gray9",
"+  c #181818",
"@  c #191919",
"#  c gray10",
"$  c #1B1B1B",
"%  c gray11",
"&  c #1D1D1D",
"*  c #1E1E1E",
"=  c gray12",
"-  c #202020",
";  c gray13",
":  c #222222",
">  c #232323",
",  c gray14",
"<  c #252525",
"1  c gray15",
"2  c #272727",
"3  c #282828",
"4  c gray16",
"5  c #2A2A2A",
"6  c gray17",
"7  c #2C2C2C",
"8  c #2D2D2D",
"9  c gray18",
"0  c #2F2F2F",
"q  c gray19",
"w  c #313131",
"e  c #323232",
"r  c gray20",
"t  c #343434",
"y  c #353535",
"u  c #373737",
"i  c #393939",
"p  c #3A3A3A",
"a  c gray23",
"s  c #3C3C3C",
"d  c #3E3E3E",
"f  c #3F3F3F",
"g  c #414141",
"h  c gray26",
"j  c #434343",
"k  c #444444",
"l  c gray27",
"z  c #464646",
"x  c gray28",
"c  c #484848",
"v  c #494949",
"b  c gray29",
"n  c #4B4B4B",
"m  c #4C4C4C",
"M  c gray30",
"N  c #4E4E4E",
"B  c gray31",
"V  c #505050",
"C  c #515151",
"Z  c gray32",
"A  c gray33",
"S  c #555555",
"D  c #565656",
"F  c gray34",
"G  c #585858",
"H  c gray35",
"J  c #5A5A5A",
"K  c #5B5B5B",
"L  c gray36",
"P  c #5D5D5D",
"I  c gray37",
"U  c #606060",
"Y  c gray38",
"T  c #626262",
"R  c gray39",
"E  c #646464",
"W  c #656565",
"Q  c gray40",
"!  c #676767",
"~  c #686868",
"^  c DimGray",
"/  c #6A6A6A",
"(  c gray42",
")  c #6C6C6C",
"_  c #6D6D6D",
"`  c gray43",
"'  c gray44",
"]  c #717171",
"[  c #727272",
"{  c gray45",
"}  c #747474",
"|  c gray46",
" . c #767676",
".. c #777777",
"X. c gray47",
"o. c #797979",
"O. c gray48",
"+. c #7B7B7B",
"@. c #7C7C7C",
"#. c gray49",
"$. c #7E7E7E",
"%. c gray50",
"&. c #808080",
"*. c #818181",
"=. c #818282",
"-. c gray51",
";. c #828383",
":. c #838383",
">. c #848383",
",. c #848484",
"<. c gray52",
"1. c #868484",
"2. c #868686",
"3. c #878686",
"4. c gray53",
"5. c #888484",
"6. c #8C8585",
"7. c #8C8686",
"8. c #888888",
"9. c #898989",
"0. c gray54",
"q. c #8B8B8B",
"w. c gray55",
"e. c #8D8D8D",
"r. c #8F8D8D",
"t. c #8E8E8E",
"y. c gray56",
"u. c #908787",
"i. c #998B8B",
"p. c #9B8C8C",
"a. c #9C8C8C",
"s. c #909090",
"d. c gray57",
"f. c #929090",
"g. c #929292",
"h. c #939393",
"j. c gray58",
"k. c #959595",
"l. c gray59",
"z. c #979797",
"x. c #989898",
"c. c gray60",
"v. c #9A9A9A",
"b. c #9B9B9B",
"n. c gray61",
"m. c #9D9D9D",
"M. c #9D9E9E",
"N. c gray62",
"B. c #9F9F9F",
"V. c #A28F8F",
"C. c #A69C9C",
"Z. c #AB9B9B",
"A. c #BC9999",
"S. c #BD9999",
"D. c #BE9999",
"F. c #BF9A9A",
"G. c #A0A0A0",
"H. c gray63",
"J. c #A2A2A2",
"K. c gray64",
"L. c #A5A5A5",
"P. c gray65",
"I. c #A7A7A7",
"U. c gray66",
"Y. c #A9A9A9",
"T. c #AAAAAA",
"R. c gray67",
"E. c #ACACAC",
"W. c gray68",
"Q. c #AEAEAE",
"!. c #AFAFAF",
"~. c gray69",
"^. c #B1B1B1",
"/. c #B2B2B2",
"(. c #B3B2B2",
"). c gray70",
"_. c #B4B4B4",
"`. c gray71",
"'. c #B6B6B6",
"]. c #B7B7B7",
"[. c gray72",
"{. c #B9B9B9",
"}. c gray73",
"|. c #BBBBBB",
" X c #BCBBBB",
".X c #BCBCBC",
"XX c gray74",
"oX c gray",
"OX c gray75",
"+X c #C0C0C0",
"@X c #C1C1C1",
"#X c gray76",
"$X c #C3C3C3",
"%X c gray77",
"&X c #C5C5C5",
"*X c #C6C6C6",
"=X c #C8C8C8",
"-X c gray79",
";X c #CACACA",
":X c #CBCBCB",
">X c gray80",
",X c #CDCDCD",
"<X c #CECECE",
"1X c gray81",
"2X c gray82",
"3X c LightGray",
"4X c gray87",
"5X c #DFDFDF",
"6X c None",
/* pixels */
"6X6X6X6X6X6X6X6X6X6X6X6X6X6X6X6X6X6X6X6X6X6X6X6X6X6X6X6X6X6X6X6X6X6X6X6X6X6X6X6X6X6X6X6X6X6X6X6X6X6X",
"6X6X6X6X6X6X6X6X6X6X6X6X6X6X6X6X6X6X4 6X6X6X6X6X6X6X6X6X6X6X6X3 2 6X6X6X6X6X6X6X6X6X6X6X6X6X6X6X6X6X",
"6X6X6X6X6X6X6X6X6X6X6X6X6X6X6X6X& z _ 1 6X6X6X6X6X6X6X6X6X6X= E S * 6X6X6X6X6X6X6X6X6X6X6X6X6X6X6X6X",
"6X6X6X6X6X6X6X6X6X6X6X6X6X6X6X* H  .| 1 6X6X6X6X6X6X6X6X6X6X* / O.Y , 6X6X6X6X6X6X6X6X6X6X6X6X6X6X6X",
"6X6X6X6X6X6X6X6X6X6X6X6X6X6X6X% ~ <.$.Y e 6X6X6X6X6X6X6X6X2 F X.,.| > 6X6X6X6X6X6X6X6X6X6X6X6X6X6X6X",
"6X6X6X6X6X6X6X6X6X6X6X6X6X6X8 x { :.:.,.t X 6X6X6X6X6X6X6X2 o.:.:.O.m r 6X6X6X6X6X6X6X6X6X6X6X6X6X6X",
"6X6X6X6X6X6X6X6X6X6X6X6X6XO r %.-.-.-.&.C a 6X6X6X6X6X6Xr b +.-.-.-.:.g O 6X6X6X6X6X6X6X6X6X6X6X6X6X",
"6X6X6X6X6X6X6X6X6X6X6X6X6XO e $.-.-.-.-.,.F @ 6X6X6X6X+ x :.-.-.-.-.-.g O 6X6X6X6X6X6X6X6X6X6X6X6X6X",
"6X6X6X6X6X6X6X6X6X6X6X6X6X- p $.-.-.-.-.,.F @ 6X6X6X6X+ x :.-.-.-.-.-.x ; 6X6X6X6X6X6X6X6X6X6X6X6X6X",
"6X6X6X6X6X6X6X6X6X6X6X6X@ B ..*.-.-.-.-.,.F @ 6X6X6X6X+ x :.-.-.-.-.-.o.L & 6X6X6X6X6X6X6X6X6X6X6X6X",
"6X6X6X6X6X6X6X6X6X6X6X6X@ D <.-.-.-.-.-.,.D + 6X6X6X6Xo z :.-.-.-.-.-.,.W & 6X6X6X6X6X6X6X6X6X6X6X6X",
"6X6X6X6X6X6X6X6X6X6X6X6X@ D <.-.-.-.-.-.:.` m : o o $ x Q -.-.-.-.-.-.<.Q & 6X6X6X6X6X6X6X6X6X6X6X6X",
"6X6X6X6X6X6X6X6X6X6X6X6X$ v ! *.-.-.-.-.-.:.+.l s s f { ,.-.-.-.-.-.-.) V & 6X6X6X6X6X6X6X6X6X6X6X6X",
"6X6X6X6X6X6X6X6X6X6X6X6X6X5 h %.-.-.-.-.-.-.-.*.*.*.*.-.-.-.-.-.-.-.-.M 5 6X6X6X6X6X6X6X6X6X6X6X6X6X",
"6X6X6X6X6X6X6X6X6X6X6X6X4 H $.-.-.-.-.-.-.-.-.-.-.-.-.-.-.-.-.-.-.-.-.%.W 7 6X6X6X6X6X6X6X6X6X6X6X6X",
"6X6X6X6X6X6X6X6X6X6X6X5 _ $.:.-.-.-.-.-.-.-.-.-.-.-.-.-.-.-.-.-.-.-.-.-.&.} t - 6X6X6X6X6X6X6X6X6X6X",
"6X6X6X6X6X6X6X6X6XO d _ %.-.-.-.-.-.-.-.-.-.-.-.-.-.-.-.-.-.-.-.-.-.-.-.-.*.] m # 6X6X6X6X6X6X6X6X6X",
"6X6X6X6X6X6X6X6X6Xo g :.&.I.&X#Xd.&.-.-.-.-.-.-.-.-.-.-.-.-.-.-.*.9.XX*X^.-.,.C O 6X6X6X6X6X6X6X6X6X",
"6X6X6X6X6X6X6X6X6Xf P 4.U.N.d.g.I.n.-.-.-.-.-.:.,.,.,.-.-.-.-.*.k.T.j.d.c.R.w.Q j 6X6X6X6X6X6X6X6X6X",
"6X6X6X6X6X6X6X6X% W :.e.4X] . * ].#X*.-.-.-.%./ ! ! ~ @.-.-.-.&.~.<X8   Z 5Xx.-.[ > 6X6X6X6X6X6X6X6X",
"6X6X6X6X6X6X6X6X4 ^ :.w.2X+.q i ).{.*.-.-.:...t ; - 8 ` :.-.-.&.T.*Xl 0 T 3Xk.-.} 0 6X6X6X6X6X6X6X6X",
"6X6X6X6X6X6X6X< ) %.:.1.r.(.,X;XN.8.-.-.-.-.&...f r { %.-.-.-.-.4.z.*X<X Xf.3.>.&.{ q 6X6X6X6X6X6X6X",
"6X6X6X6X6X6X6X1 | ;.i.D.S.Z.m.n.8.*.-.-.-.-.-.:.[ ` -.-.-.-.-.-.*.<.v.M.C.A.F.V.-.$.q O 6X6X6X6X6X6X",
"6X6X6X6X6X6X6X, | ;.7.a.a.6.&.*.-.-.-.-.-.-.-.-.:.:.-.-.-.-.-.-.-.-.*.&.5.p.a.u.-.#.0 o 6X6X6X6X6X6X",
"6X6X6X6X6X6Xu D @.-.=.*.*.=.-.-.-.-.-.-.-.-.-.-.-.-.-.-.-.-.-.-.-.-.-.-.-.*.*.=.-.&.L f 6X6X6X6X6X6X",
"6X6X6X6X6Xo h ,.-.-.-.-.-.-.-.-.-.-.-.*.*.*.*.*.*.*.*.*.*.*.*.-.-.-.-.-.-.-.-.-.-.-.<.Z O 6X6X6X6X6X",
"6X6X6X6X6X5 N -.-.-.-.-.-.-.-.-.-.-.:.q.e.e.e.e.e.e.e.e.e.e.w.,.-.-.-.-.-.-.-.-.-.-.:.K 7 6X6X6X6X6X",
"6X6X6X6X& T %.-.-.-.-.-.-.-.-.-.<.2.w./.[.].].].].].].].].].`.g.<.2.-.-.-.-.-.-.-.-.-.&._ , 6X6X6X6X",
"6X6X6X6X* Q ,.-.-.-.-.-.-.-.-.,.L././.}.|.|.|.|.|.|.|.|.|.|.|.).^.R.4.-.-.-.-.-.-.-.-.:.{ , 6X6X6X6X",
"6X6X6X8 H X.:.-.-.-.-.-.-.*.q.I.]..X.X|.|.|.|..XH.v.|.|.|.|.|.|..X{.T.s.*.-.-.-.-.-.-.-.@.I u 6X6X6X",
"6X6Xo 9 ..$.&.-.-.-.-.-.-.*.y.}.|.|.|.|.|..X[.N.<.&.b._..X|.|.|.|.|..Xx.&.-.-.-.-.-.-.&.$.@.a o 6X6X",
"6X6Xq z ..O.@.&.*.-.-.-.-.w.m.}..X.X.X|.|.).K.s.t.t.t.G.!.|.|..X.X.X|.K.t.-.-.-.-.*.&.#.O.O.B r 6X6X",
"6X@ N O.O.O.+.X.E | &.-.*.J..X|.Q.Y.E.{..XI.d.`.}.}.[.l.G..X|.Q.Y.E.}..XT.:.-.&.o.E | +.O.O.+.L % 6X",
"6X@ B @.O.O. .Q r P O.:.8.P.}./.s.:.0.Q.{.}.{.|.|.|.|.{.}.}./.y.:.0.Q.{.W.0.,.@.! e I } O.O.@.P % 6X",
"6X@ B @.O.@.G 7 U ' X.4.Q.}.W.<.I.`.W.q.W..X|.|.|.|.|.|..X).q.U.`.W.2.L.}./.e.O.] Q e b +.O.@.P % 6X",
"6X@ B @.+.@.A > ! ..o.:.).XXR.$.R.XX{.W.].|.|.|.|.|.|.|.|.{.W.]..X).&.H.XX[.9.o.X.} 8 k @.+.@.P % 6X",
"6X6Xu g g h w , ( o.<.v.Q.[.`.J._.|.|..X|.|.|.|.|.|.|.|.|.|..X|.|.].K.^.{.^.m.9.O.| 9 6 h g g a 6X6X",
"6X6X6XO O O + < ` O.e.E.R.~.`.'.}.|.|.|.|.|.|.|.|.|.|.|.|.|.|.|.|.}.'.`./.R.E.k.O.| 0 O O O O 6X6X6X",
"6X6X6X6X6X6X6X, ` O.e.R.R.R.R.R._.].].].}.|.|.|.|.|.|.|.|.|.[.].].'.E.R.R.R.E.k.O. .9 o 6X6X6X6X6X6X",
"6X6X6X6X6X6X6Xr ~ ..e.R.R.R.R.R.E.E.E.E.'.}.{.{.{.{.{.{.{.].W.E.E.E.R.R.R.R.E.k.X.` p r 6X6X6X6X6X6X",
"6X6X6X6X,X$X'.v.i Y t.R.R.R.R.R.R.R.R.R.W.W.W.W.W.W.W.W.W.W.R.R.R.R.R.R.R.R.E.k.) y q.).@X>X6X6X6X6X",
"6X1X1X>X#X+X@XQ.e P t.R.R.R.R.R.R.R.R.R.R.R.R.R.R.R.R.R.R.R.R.R.R.R.R.R.R.R.E.k./ 6 n.#XOX#X;X1X1X6X",
"6X1X1X:X+XOXOX{.t.n R W.R.R.R.R.R.R.R.R.R.R.R.R.R.R.R.R.R.R.R.R.R.R.R.R.R.R.!. .h <._.+XOXOX-X1X1X6X",
"6X1X1X:XOXOXOXOXOX-.E ^ K.Q.W.R.R.R.R.R.R.R.R.R.R.R.R.R.R.R.R.R.R.R.R.W.Q.T.] R X.}.+XOXOXOX-X1X1X6X",
"6X1X1X,X%X+XOXOXOX$Xj.C | +.4.R.W.W.W.W.W.W.W.W.W.W.W.W.W.W.W.W.W.W.W.t.+.o.A *.#XOXOXOX+X%X:X1X1X6X",
"6X1X1X1X<X&X@X@XOXOXOXQ.c y M y.h.g.g.g.g.g.g.g.g.g.g.g.g.g.g.g.g.g.h.J y d G.+XOXOX@X#X%X<X1X1X1X6X",
"6X6X1X1X1X<X<X>X#X+X+XOX_._.g.t 0 q q q q q q q q q q q q q q q q q 0 &._.).XX+X+X@X:X<X<X1X1X1X6X6X",
"6X6X6X6X1X<X<X<X:X:X>X>X,X*X].B.N.N.N.N.N.N.N.N.N.N.N.N.N.N.N.N.N.N.N.).%X>X>X>X>X;X,X<X<X,X6X6X6X6X",
"6X6X6X6X6X6X6X6X6XoX1X<X<X:X-X;X;X;X;X;X;X;X;X;X;X;X;X;X;X;X;X;X;X;X;X-X;X<X1X1X=X6X6X6X6X6X6X6X6X6X",
"6X6X6X6X6X6X6X6X6X6X6X6X6X6X].'.`.`.6X`.).)./.).)._.6X/.^.`.`.)._.`.].[.].6X6X6X6X6X6X6X6X6X6X6X6X6X"
};
