/* XPM */
static char *result[] = {
/* columns rows colors chars-per-pixel */
"50 50 165 2 ",
"   c #101010",
".  c #151515",
"X  c #161616",
"o  c gray9",
"O  c #181818",
"+  c #191919",
"@  c gray10",
"#  c #1E1E1E",
"$  c gray12",
"%  c #222222",
"&  c #232323",
"*  c gray14",
"=  c #252525",
"-  c gray15",
";  c gray16",
":  c #2A2A2A",
">  c #2C2C2C",
",  c gray18",
"<  c #2F2F2F",
"1  c gray19",
"2  c #313131",
"3  c #343434",
"4  c #353535",
"5  c gray22",
"6  c #393939",
"7  c gray23",
"8  c gray24",
"9  c #3E3E3E",
"0  c #3F3F3F",
"q  c gray25",
"w  c #414141",
"e  c #434343",
"r  c #444444",
"t  c gray27",
"y  c #464646",
"u  c gray28",
"i  c #494949",
"p  c #4B4B4B",
"a  c #4C4C4C",
"s  c gray30",
"d  c #4E4E4E",
"f  c gray31",
"g  c #515151",
"h  c #535353",
"j  c #555555",
"k  c #565656",
"l  c #585858",
"z  c #5A5A5A",
"x  c gray36",
"c  c #5D5D5D",
"v  c gray37",
"b  c #5F5F5F",
"n  c gray39",
"m  c #656565",
"M  c gray40",
"N  c #676767",
"B  c #686868",
"V  c DimGray",
"C  c #6A6A6A",
"Z  c gray42",
"A  c #6C6C6C",
"S  c #6F6F6F",
"D  c gray44",
"F  c #717171",
"G  c #727272",
"H  c gray45",
"J  c #747474",
"K  c gray46",
"L  c #767676",
"P  c #777777",
"I  c gray47",
"U  c #797979",
"Y  c gray48",
"T  c #7B7B7B",
"R  c #7C7C7C",
"E  c gray49",
"W  c #7E7E7E",
"Q  c gray50",
"!  c #808080",
"~  c #808181",
"^  c #818181",
"/  c #818282",
"(  c gray51",
")  c #838282",
"_  c #838383",
"`  c #858383",
"'  c #848484",
"]  c gray52",
"[  c #868686",
"{  c gray53",
"}  c #898787",
"|  c #8D8686",
" . c #888888",
".. c #898989",
"X. c gray54",
"o. c gray55",
"O. c #8D8D8D",
"+. c #8E8E8E",
"@. c gray56",
"#. c #918888",
"$. c #968989",
"%. c #909090",
"&. c #939393",
"*. c gray58",
"=. c #959595",
"-. c gray59",
";. c #979797",
":. c #989898",
">. c gray60",
",. c #9A9A9A",
"<. c gray61",
"1. c #9D9D9D",
"2. c gray62",
"3. c #9F9F9F",
"4. c #A39A9A",
"5. c #BA9898",
"6. c #BB9999",
"7. c #A0A0A0",
"8. c gray63",
"9. c #A4A4A4",
"0. c #A5A5A5",
"q. c gray65",
"w. c gray66",
"e. c #A9A9A9",
"r. c #AAAAAA",
"t. c gray67",
"y. c #ACACAC",
"u. c gray68",
"i. c #AEAEAE",
"p. c #AFAFAF",
"a. c gray69",
"s. c #B1B1B1",
"d. c #B2B2B2",
"f. c gray70",
"g. c #B4B4B4",
"h. c gray71",
"j. c #B6B6B6",
"k. c #B7B7B7",
"l. c gray72",
"z. c #B9B9B9",
"x. c gray73",
"c. c #BBBBBB",
"v. c #BCBCBC",
"b. c gray74",
"n. c gray",
"m. c gray75",
"M. c #CC9F9F",
"N. c #C0C0C0",
"B. c #C1C1C1",
"V. c gray76",
"C. c #C3C3C3",
"Z. c gray77",
"A. c #C6C6C6",
"S. c gray78",
"D. c gray79",
"F. c #CACACA",
"G. c #CBCBCB",
"H. c gray80",
"J. c #CDCDCD",
"K. c #CECECE",
"L. c gray81",
"P. c LightGray",
"I. c #D7D7D7",
"U. c #D8D8D8",
"Y. c None",
/* pixels */
"Y.Y.Y.Y.Y.Y.Y.Y.Y.Y.Y.Y.Y.Y.Y.Y.Y.Y.Y.Y.Y.Y.Y.Y.Y.Y.Y.Y.Y.Y.Y.Y.Y.Y.Y.Y.Y.Y.Y.Y.Y.Y.Y.Y.Y.Y.Y.Y.Y.Y.",
"Y.Y.Y.Y.Y.Y.Y.Y.Y.Y.Y.Y.Y.Y.Y.Y.: > > Y.Y.Y.Y.Y.Y.Y.Y.Y.Y.Y.Y.> > : Y.Y.Y.Y.Y.Y.Y.Y.Y.Y.Y.Y.Y.Y.Y.Y.",
"Y.Y.Y.Y.Y.Y.Y.Y.Y.Y.Y.Y.Y.Y.Y.O a R L 4 Y.Y.Y.Y.Y.Y.Y.Y.Y.Y.4 L R a O Y.Y.Y.Y.Y.Y.Y.Y.Y.Y.Y.Y.Y.Y.Y.",
"Y.Y.Y.Y.Y.Y.Y.Y.Y.Y.Y.Y.Y.Y.Y.+ d ' ( H 8 Y.Y.Y.Y.Y.Y.Y.Y.7 S ^ ' d + Y.Y.Y.Y.Y.Y.Y.Y.Y.Y.Y.Y.Y.Y.Y.",
"Y.Y.Y.Y.Y.Y.Y.Y.Y.Y.Y.Y.Y.Y.$ j G ( ( ] 9 . Y.Y.Y.Y.Y.Y.. 8 _ ( ( G j $ Y.Y.Y.Y.Y.Y.Y.Y.Y.Y.Y.Y.Y.Y.",
"Y.Y.Y.Y.Y.Y.Y.Y.Y.Y.Y.Y.Y.Y.$ A ' ( ( ( x 9 Y.Y.Y.Y.Y.Y.9 x ( ( ( ' A $ Y.Y.Y.Y.Y.Y.Y.Y.Y.Y.Y.Y.Y.Y.",
"Y.Y.Y.Y.Y.Y.Y.Y.Y.Y.Y.Y.Y.Y.$ C _ ( ( ( ' c @ Y.Y.Y.Y.@ c ' ( ( ( _ C $ Y.Y.Y.Y.Y.Y.Y.Y.Y.Y.Y.Y.Y.Y.",
"Y.Y.Y.Y.Y.Y.Y.Y.Y.Y.Y.Y.Y.Y.= A _ ( ( ( ' c @ Y.Y.Y.Y.@ c ' ( ( ( _ A = Y.Y.Y.Y.Y.Y.Y.Y.Y.Y.Y.Y.Y.Y.",
"Y.Y.Y.Y.Y.Y.Y.Y.Y.Y.Y.Y.Y.1 A W ( ( ( ( ' c @ Y.Y.Y.Y.@ c ' ( ( ( ( W A 1 Y.Y.Y.Y.Y.Y.Y.Y.Y.Y.Y.Y.Y.",
"Y.Y.Y.Y.Y.Y.Y.Y.Y.Y.Y.Y.Y.2 W _ ( ( ( ( ' x + Y.Y.Y.Y.+ x ' ( ( ( ( _ W 2 Y.Y.Y.Y.Y.Y.Y.Y.Y.Y.Y.Y.Y.",
"Y.Y.Y.Y.Y.Y.Y.Y.Y.Y.Y.Y.Y.2 W _ ( ( ( ( _ C 9 Y.Y.Y.Y.9 C _ ( ( ( ( _ W 2 Y.Y.Y.Y.Y.Y.Y.Y.Y.Y.Y.Y.Y.",
"Y.Y.Y.Y.Y.Y.Y.Y.Y.Y.Y.Y.Y.1 S Q ( ( ( ( ( _ P 3 ; ; 4 P _ ( ( ( ( ( Q S 1 Y.Y.Y.Y.Y.Y.Y.Y.Y.Y.Y.Y.Y.",
"Y.Y.Y.Y.Y.Y.Y.Y.Y.Y.Y.Y.Y.Y.2 S _ ( ( ( ( ( ^ Y I I Y ^ ( ( ( ( ( _ S 2 Y.Y.Y.Y.Y.Y.Y.Y.Y.Y.Y.Y.Y.Y.",
"Y.Y.Y.Y.Y.Y.Y.Y.Y.Y.Y.Y.Y.2 S Q ( ( ( ( ( ( ( _ _ _ _ ( ( ( ( ( ( ( Q S 2 Y.Y.Y.Y.Y.Y.Y.Y.Y.Y.Y.Y.Y.",
"Y.Y.Y.Y.Y.Y.Y.Y.Y.Y.Y.Y.w M ^ ( ( ( ( ( ( ( ( ( ( ( ( ( ( ( ( ( ( ( ( ^ M w Y.Y.Y.Y.Y.Y.Y.Y.Y.Y.Y.Y.",
"Y.Y.Y.Y.Y.Y.Y.Y.Y.Y.Y.0 n ' ^ ^ ^ ( ( ( ( ( ( ( ( ( ( ( ( ( ( ( ( ^ ^ ^ ' n 0 Y.Y.Y.Y.Y.Y.Y.Y.Y.Y.Y.",
"Y.Y.Y.Y.Y.Y.Y.Y.Y.Y.$ Z _ [ =.;.o.^ ( ( ( ( ( ( ( ( ( ( ( ( ( ( ^ o.;.=.[ _ Z $ Y.Y.Y.Y.Y.Y.Y.Y.Y.Y.",
"Y.Y.Y.Y.Y.Y.Y.Y.Y.Y.* A ] >.P.U.p.] ( ( ( ( ( ( ( ( ( ( ( ( ( ( ] p.U.P.>.] A * Y.Y.Y.Y.Y.Y.Y.Y.Y.Y.",
"Y.Y.Y.Y.Y.Y.Y.Y.Y.1 C R y.g.s r O.V.[ ( ( ( ( _ _ _ _ ( ( ( ( [ V.O.r s g.y.R C 2 Y.Y.Y.Y.Y.Y.Y.Y.Y.",
"Y.Y.Y.Y.Y.Y.Y.Y.Y.1 W ^ x.v.#   ^ I.{ ( ( ( T s y y s T ( ( ( { I.^   # v.x.^ W 1 Y.Y.Y.Y.Y.Y.Y.Y.Y.",
"Y.Y.Y.Y.Y.Y.Y.Y., a Q ~ 0.a.n c *.z.] ( ( _ U e % % e U _ ( ( ] z.*.c n a.0.~ Q a , Y.Y.Y.Y.Y.Y.Y.Y.",
"Y.Y.Y.Y.Y.Y.Y.o 9 ^ ) #.$.4.G.L.w.( ( ( ( ( ( ^ s s ^ ( ( ( ( ( ( w.L.G.4.$.#.) ^ 9 o Y.Y.Y.Y.Y.Y.Y.",
"Y.Y.Y.Y.Y.Y.Y.o 9 / ` 5.M.6.} [ ' ( ( ( ( ( ( ( Q Q ( ( ( ( ( ( ( ' [ } 6.M.5.` / 9 o Y.Y.Y.Y.Y.Y.Y.",
"Y.Y.Y.Y.Y.Y.Y.o 9 ( ) | #.| ( ( ( ( ( ( ( ( ( ( ( ( ( ( ( ( ( ( ( ( ( ( | #.| ) ( 9 o Y.Y.Y.Y.Y.Y.Y.",
"Y.Y.Y.Y.Y.Y.o i V ( ( / / / ( ( ( ( ( ( ( ( ( ( ( ( ( ( ( ( ( ( ( ( ( ( / / / ( ( V i o Y.Y.Y.Y.Y.Y.",
"Y.Y.Y.Y.Y.Y.q A ' ( ( ( ( ( ( ( ( ( ( ( ^ ^ ^ ^ ^ ^ ^ ^ ^ ^ ( ( ( ( ( ( ( ( ( ( ( ' A q Y.Y.Y.Y.Y.Y.",
"Y.Y.Y.Y.Y.- L _ ( ( ( ( ( ( ( ( ( ( ( X.o.o.o.o.o.o.o.o.o.o.X.( ( ( ( ( ( ( ( ( ( ( _ L - Y.Y.Y.Y.Y.",
"Y.Y.Y.Y.Y.: L _ ( ( ( ( ( ( ( ( _ ' { t.k.k.k.k.k.k.k.k.k.k.t.{ ' _ ( ( ( ( ( ( ( ( _ L : Y.Y.Y.Y.Y.",
"Y.Y.Y.Y.5 N W ( ( ( ( ( ( ( ( ^ ;.i.i.l.c.c.c.c.v.v.c.c.c.c.l.i.i.;.^ ( ( ( ( ( ( ( ( W N 5 Y.Y.Y.Y.",
"Y.Y.Y.X 7 T E ! ( ( ( ( ( ( _ >.p.v.v.c.c.c.c.v.9.9.v.c.c.c.c.v.v.p.>._ ( ( ( ( ( ( ! E T 7 X Y.Y.Y.",
"Y.Y.Y.2 d Y Y Q ( ( ( ( ( ( ' p.v.c.c.c.c.c.z.e. . .e.z.c.c.c.c.c.v.p.' ( ( ( ( ( ( Q Y Y d 2 Y.Y.Y.",
"Y.Y.< b Y Y Y W ^ ^ ( ( ( ] %.s.v.c.c.c.c.j.e.O. . .O.e.j.c.c.c.c.v.s.%.] ( ( ( ^ ^ W Y Y Y b < Y.Y.",
"Y.- Z U Y Y Y Y I P ! ( ^ +.j.c.z.k.k.x.v.q. .s.l.l.s. .q.v.x.k.k.z.c.j.+.^ ( ! P I Y Y Y Y U Z - Y.",
"Y.- S T Y Y Y R v 8 G Q ^ @.z.v.8.] ..p.v.j.a.x.c.c.x.a.j.v.p...] 8.v.z.@.^ Q G 8 v R Y Y Y T S - Y.",
"Y.- D R R J u q t j F W &.r.l.1.,.7.3.-.u.v.v.c.c.c.c.v.v.u.-.3.7.,.1.l.r.&.W F j t q u J R R D - Y.",
"Y.= h l l h & X 5 H K R 2.b.l.[ >.b.x.,.t.v.c.c.c.c.c.c.v.t.,.x.b.>.[ l.b.2.R K L 6 X & h l l h = Y.",
"Y.Y.@ @ @ @ Y.o 6 J Y Q 1.x.l.@.3.v.c.c.c.c.c.c.c.c.c.c.c.c.c.c.v.3.@.l.x.1.Q Y Y 7 o Y.@ @ @ @ Y.Y.",
"Y.Y.Y.Y.Y.Y.Y.o 7 U R 1.r.a.x.j.l.c.c.c.c.c.c.c.c.c.c.c.c.c.c.c.c.l.j.x.a.r.1.R Y 7 o Y.Y.Y.Y.Y.Y.Y.",
"Y.Y.Y.Y.Y.Y.Y.X 7 Y R 7.y.y.p.p.h.c.c.c.c.c.c.c.c.c.c.c.c.c.c.c.c.h.p.p.y.y.7.R Y 7 X Y.Y.Y.Y.Y.Y.Y.",
"Y.Y.Y.Y.Y.Y.Y.3 6 T R 7.y.t.t.t.p.f.f.f.l.c.c.c.c.c.c.c.c.l.f.f.f.p.t.t.t.y.7.R T 6 4 Y.Y.Y.Y.Y.Y.Y.",
"Y.Y.Y.Y.G.S.N.! k z T 7.y.t.t.t.t.t.t.t.s.h.g.g.g.g.g.g.h.s.t.t.t.t.t.t.t.y.7.T z k ! N.S.G.Y.Y.Y.Y.",
"Y.Y.L.L.D.m.m.V.%.r B <.y.t.t.t.t.t.t.t.t.t.t.t.t.t.t.t.t.t.t.t.t.t.t.t.t.y.<.B r %.V.m.m.D.L.L.Y.Y.",
"Y.Y.L.L.D.m.m.m.b.=.4  .e.t.t.t.t.t.t.t.t.t.t.t.t.t.t.t.t.t.t.t.t.t.t.t.t.e. .4 =.b.m.m.m.D.L.L.Y.Y.",
"Y.Y.L.L.D.m.m.m.N.l.:.a F i.y.t.t.t.t.t.t.t.t.t.t.t.t.t.t.t.t.t.t.t.t.y.i.F a :.l.N.m.m.m.D.L.L.Y.Y.",
"Y.Y.L.L.J.S.N.m.m.N.n.{ m k z ,.p.i.i.i.i.i.i.i.i.i.i.i.i.i.i.i.i.p.,.z k m { n.N.m.m.N.S.J.L.L.Y.Y.",
"Y.Y.L.L.L.K.A.Z.V.m.m.C.{ p f D T Y Y Y Y Y Y Y Y Y Y Y Y Y Y Y Y T D f p { C.m.m.V.Z.A.K.L.L.L.Y.Y.",
"Y.Y.Y.L.L.L.L.L.F.B.B.B.N.m.k.g 1 2 2 2 2 2 2 2 2 2 2 2 2 2 2 2 2 1 g k.m.N.B.B.B.F.L.L.L.L.L.Y.Y.Y.",
"Y.Y.Y.Y.Y.L.L.L.K.J.J.J.K.F.m.d.i.i.i.i.i.i.i.i.i.i.i.i.i.i.i.i.i.i.d.m.F.K.J.J.J.K.L.L.L.Y.Y.Y.Y.Y.",
"Y.Y.Y.Y.Y.Y.Y.Y.Y.Y.L.L.L.K.G.G.H.H.H.H.H.H.H.H.H.H.H.H.H.H.H.H.H.H.G.G.K.L.L.L.Y.Y.Y.Y.Y.Y.Y.Y.Y.Y.",
"Y.Y.Y.Y.Y.Y.Y.Y.Y.Y.Y.Y.Y.Y.Y.Y.Y.Y.Y.Y.Y.Y.Y.Y.Y.Y.Y.Y.Y.Y.Y.Y.Y.Y.Y.Y.Y.Y.Y.Y.Y.Y.Y.Y.Y.Y.Y.Y.Y.Y."
};
