/* XPM */
static char *Y29vbHdhbGxfNTB4NTAu[] = {
/* columns rows colors chars-per-pixel */
"50 50 242 2 ",
"   c #00002A",
".  c #020334",
"X  c #02043B",
"o  c #020C3C",
"O  c #0A0A3C",
"+  c #000A36",
"@  c #07153C",
"#  c #100E3F",
"$  c #010D41",
"%  c #0A0D45",
"&  c #0C1245",
"*  c #0C1649",
"=  c #06194B",
"-  c #081849",
";  c #141B4D",
":  c #1A1D4D",
">  c #131746",
",  c #0A1C53",
"<  c #0D1150",
"1  c #141B51",
"2  c #1B1D53",
"3  c #181956",
"4  c #120E41",
"5  c #201E5D",
"6  c #1D274D",
"7  c #0A2256",
"8  c #132154",
"9  c #1D2254",
"0  c #14255B",
"q  c #1C255B",
"w  c #142A5B",
"e  c #1C295C",
"r  c #172956",
"t  c #20264C",
"y  c #212354",
"u  c #22255A",
"i  c #232A5C",
"p  c #2A2C5E",
"a  c #272A56",
"s  c #2D335E",
"d  c #233258",
"f  c #32355F",
"g  c #162B62",
"h  c #1B2C63",
"j  c #172562",
"k  c #1C3568",
"l  c #1E3F71",
"z  c #232C64",
"x  c #2B2D63",
"c  c #292E6A",
"v  c #242665",
"b  c #312F65",
"n  c #233365",
"m  c #2C3264",
"M  c #23346A",
"N  c #2C346A",
"B  c #2B3A6C",
"V  c #293A68",
"C  c #333565",
"Z  c #333A65",
"A  c #33356B",
"S  c #343A6D",
"D  c #3A3B6C",
"F  c #393968",
"G  c #2C3D73",
"H  c #283B71",
"J  c #353C73",
"K  c #3A3D74",
"L  c #373A77",
"P  c #413E70",
"I  c #2A426A",
"U  c #39446D",
"Y  c #2A4678",
"T  c #324275",
"R  c #3C4374",
"E  c #33447A",
"W  c #3C437B",
"Q  c #33497C",
"!  c #3C4B7C",
"~  c #374B74",
"^  c #36527B",
"/  c #424375",
"(  c #42457C",
")  c #434A7D",
"_  c #4B4C7D",
"`  c #474C75",
"'  c #4C547D",
"]  c #48537A",
"[  c #54597C",
"{  c #43466E",
"}  c #3D3F8A",
"|  c #3D4381",
" . c #354D83",
".. c #3C4D83",
"X. c #2E5183",
"o. c #3C5285",
"O. c #3C558A",
"+. c #3C598E",
"@. c #355488",
"#. c #3D5B93",
"$. c #315B97",
"%. c #2E4C80",
"&. c #3B649A",
"*. c #3E6BAA",
"=. c #424583",
"-. c #454C83",
";. c #4A4D84",
":. c #454C8A",
">. c #4C4D8C",
",. c #44458C",
"<. c #514F86",
"1. c #465185",
"2. c #4C5285",
"3. c #44548A",
"4. c #4C528B",
"5. c #445A8E",
"6. c #4B5A8C",
"7. c #485A84",
"8. c #525485",
"9. c #545B85",
"0. c #53558C",
"q. c #535B8D",
"w. c #595B8B",
"e. c #595C87",
"r. c #4B4C93",
"t. c #484995",
"y. c #4D5392",
"u. c #445B92",
"i. c #4D5B93",
"p. c #4E539C",
"a. c #415F9A",
"s. c #525493",
"d. c #545A93",
"f. c #5B5D93",
"g. c #53559B",
"h. c #555B9A",
"j. c #5A5C9B",
"k. c #595699",
"l. c #504F91",
"z. c #615C91",
"x. c #4B618A",
"c. c #5A6287",
"v. c #56618B",
"b. c #5C638B",
"n. c #546287",
"m. c #4B6396",
"M. c #44649B",
"N. c #4B659B",
"B. c #4C6A9D",
"V. c #43669B",
"C. c #546295",
"Z. c #5D6294",
"A. c #5E6A93",
"S. c #55669B",
"D. c #5C649B",
"F. c #546A9D",
"G. c #5C6A9B",
"H. c #526A95",
"J. c #64688E",
"K. c #626494",
"L. c #636B95",
"P. c #63659C",
"I. c #646A9C",
"U. c #6A6C9D",
"Y. c #6A669D",
"T. c #67729B",
"R. c #5454A1",
"E. c #595AA4",
"W. c #605EA9",
"Q. c #446DA3",
"!. c #4B6DA3",
"~. c #496DA7",
"^. c #556DA2",
"/. c #5B6CA2",
"(. c #5D62A2",
"). c #4D71A4",
"_. c #4C74AA",
"`. c #4874AA",
"'. c #5472A6",
"]. c #5B73A6",
"[. c #5475AA",
"{. c #5A74AA",
"}. c #5379AD",
"|. c #5C79AD",
" X c #4B78B3",
".X c #5276B0",
"XX c #547CB3",
"oX c #5C7DB2",
"OX c #5B7AB3",
"+X c #6164A3",
"@X c #656CA3",
"#X c #6B6BA4",
"$X c #6562AC",
"%X c #6C6DAB",
"&X c #6967A7",
"*X c #716BA5",
"=X c #716DAB",
"-X c #6571A5",
";X c #6B72A5",
":X c #6476AA",
">X c #6B74AB",
",X c #637BAE",
"<X c #6B7CAA",
"1X c #7272A6",
"2X c #7374AB",
"3X c #747AAB",
"4X c #7A7BAC",
"5X c #7876A5",
"6X c #6C6CB4",
"7X c #6867B3",
"8X c #627DB4",
"9X c #6D77B3",
"0X c #7376B3",
"qX c #747CB3",
"wX c #7A7CB3",
"eX c #7373BA",
"rX c #7A7CBB",
"tX c #7678B8",
"yX c #726FBE",
"uX c #7B7BC4",
"iX c #817FAE",
"pX c #5C81B4",
"aX c #5582BB",
"sX c #5B84BA",
"dX c #5A85BA",
"fX c #6380B4",
"gX c #6484BA",
"hX c #6A86B9",
"jX c #7B83B4",
"kX c #7C83BB",
"lX c #7584B9",
"zX c #5786C5",
"xX c #688CC3",
"cX c #7C86C3",
"vX c #7195C9",
"bX c #7DA5D9",
"nX c #8388BC",
"mX c #8388C3",
"MX c #8C93C6",
"NX c #9191C3",
"BX c #80A4D8",
"VX c #86AEE1",
/* pixels */
"*. X&.Q.k F.T.A.c.` ` ] [ Z.0.u Z.1Xf.P.1Xr N 6.1.1.) ! 4.4.( N ! q.d.8._ q.0._ 0.d.J H M.~.#.&.$.*.",
"zXzXzXxXl B.n.~ n.[ [ b.K.I.7.u K.1XY.;X#Xq S 1.;.1.1.-.4.d.-.J -X;X-XI.Y.P.K.U.0.j.E O.gXsXaXXXXXXX",
"zXzX.XgXk m.G.n.9.2.K.1XI.Z.) ; 0.f.f.U.2.2 B W T E T T W ..Q B H.S.D.G.1XZ.0.P.d.s.q ..gXoXsX}.XXXX",
"sXoX.XhXk /.lXlXP.w.K.U.b.q.) x A x A R ; $ e j 0 w w 7 7 g 0 7 Q ..o.) -XI.@X2XwX-Xq ..cX|.gX}.OXoX",
"[.oX{.,X, E | L s.=.P L m A R m wX*X#XqXW i.<X].].].].'.{.|.|.[.B.B.5.M 1.i.A.f.Z.I.q E ^.O.!.p.N.B.",
"7 Q  .i.3 i.E.E.l.t.l.l.) 0.7.T 1X#XP.%Xz i.:X^.'.).).).}.oXpXoXgXhXfX .6.C.D.A u -.V J ..M %...o.G ",
"~ fX:X-XW rXuXuXuXuXmXiXqXkX3X) P.%X#X9Xe F.{.'.'.).).}.pXdXdXdX.X}.hXB.:XlXMX-.1 0.0.1.d.3.3.5.T k ",
"s T.G.D.L eX7X7XW.R.R.} L 1.! ; -.+X&X2Xq S./.'.[.).).`.}.aXpX}.gX).fX@.i.F.lXT * ) ;.J :.6.Q S c z ",
"U T.K.w.L 7XuXuX7XR.t.,.L 1.) ; -.%X@XqXz h.,X!.|.}.}.}.}.pX}.}..X~.^.+.F.h.>XJ ; R =.:.f.N H J (.(.",
"s L.K.P.L eX6XW.E.t.t.,.-.4.R & ( P.j.&X0 5.:X].m.V.&.&.V.Q.).`.8XOX{.O.S.S.>XV o ;.w.P N z >.+Xd.r.",
"s U.U.@XL E.r.,.k.t.l.k.d.d.R # ;.@X#XqXh ..m.o.^ Y Y Y %.@.@.+.O.5.5.G S.<XjXS % A A S :.K.+Xy.s.r.",
"p ;X1XI.A +Xr.h.k.r.g.k.q.4.S & 8.+X@X@X2 N T h h h g g g h h M k z G e C.-X@Xm X x =.j.D.(.h.s.k.s.",
"m w.f.K q W z c c c N N z u ; o / ;.) d.i -.>XD.-X-X>X:X:X-X>X>X;XD.D.) %XY.f.A X c >.=.| L | y.=.} ",
";.f.d.x S 4.c e q 3 1 1 1 ; ; 9 K K ( 0.m 1.>X@XD.P.+X#X&X&X&X#XP.;.) 3 F p 2 % u P ( 3 | (.g.:.s.-.",
"-X%XqXW 9XMXmXkXkXjXjXjXnXjXwXnXnXnXNXMX7.0.@Xf.@X#X*X*X*X*X*X*XwX=XwX( K.d.w.0.( #X2Xc 9XuX9XtXwXqX",
"+X/.>Xh D.qXkXMXnXkXjXjXnX3X;XwX4X3XjXjXR _ ;X;X>X1X=X*Xz.Y.&X*XY.iXNXw.5XwX2X>X@X0X=Xj cXeX/.>X>X;X",
"Y o.J w 8 D.jX4X1XL.U.U.U.L.C.A.b.A.A.A.s V ~ Z s p p u 9 9 u p d t Z d Z T 3...|  .M j I ^ Q T E E ",
"oX{.F. .* 9 S L.U.w.K.e.C.G.q.6.9.n.9.n.d U n.] 1.] _ ) _ _ ;._ { ] { [ 6 7.i.B.^.OX{.{.T.pX^.].F.^.",
"OX{.fXlX6.n & 9 / 8.U.Y.q.b.w.b.v.b.n.n.Z ' 1XL.T.L.A.L.I.U.K.z.J.J.[ jXi S.,XcXOX9XxXvXhXpXfXpX|.OX",
"_.!.).{.F.D.q : Z C 8.w.' 7.e.U.A.L.9.] a U A.2.v.q.9.0.e.e.' ] [ [ J.[ ; w m.{.{.a.!.{.).x.pXH.'.^.",
"Q.Q.~.#.5.S.n Z 0.; # t y y t a ; 6 6 p > U L.J.e.c.J.b.e.c.e.9.[ [ J.J.e = C.8XOXa.Q.!.#.&.).Q.V.&.",
"Q.&._.~.'.^.r V MX/ / J.e.[ _ _ 8.9.8.8.p U e.' 9.9.c.c.e.e.c.n.[ [ [ J.r - 5.fX'.[.XX_.&.&.&.*.Q.V.",
"aXQ.~.!.[.,Xe S 3XU e.3XY.U.5XiX4X3X1X4X_ 8.Y.J.J.J.b.b.c.c.c.c.[ fX[ T.r 8 5.{.~.OXXX X*.&.*.aXpXaX",
"`.`.XX!.[.,Xw V nXR D { b P P P D F F _ : : F F F f d 6 6 6 6 6 6 ~ s I @ = 5.'.'.oX.XQ.}.aXaXaX`._.",
"aXXX.XuX Xu.E h R ; + O . O 4 4 > O O 4 O # # .     + @ @ d @ @ @ @ @ - + r o.].[.[.[.[.XXdXdXzXXX}.",
"~. X~.M.#. .h @ ; & : s C P P P <._ ;.<.<.8.<.P ) F @ ] ] I ~ I ~ ^ I I = I m.^.^.!.~.~._.[..X.X_.).",
"#.O. .@.Q , $ - r A / <.w.0.<.w.0.<.0.<.P _ w.z._ 8.. <X^ ] n.H.x.x.x.x.d Y 1.o.5.u.#.#.#.#.#.&.V.V.",
"l j g 7 7 @ , -.) q.0.1.0.<.=.( >.P P <.w.<.P p m i ; ! +.^ ^ I I I Y ] = 7 w 0 j j j j j j 0 j h g ",
":.i.:.$ , B -.q.;.4.W K >.s.-.:.<.-.;.<.P b b x D B $ m.^ H.l 7 B.'.].].w ..S.(.d.h.C.h.g.p.p.h.d.6.",
"cXmX-X% N 0.4.;.;.W J W 4.s.l.4.0.W D p : 3 L >.;.W r o.H.l pX).+.[.pX,Xg ].mXlXrXkXrXmXiXtXrXrXkXjX",
"2X+X0.X R 0.;.4.q.-.-.4.>.:.r.>.d.A u S ;.0.-.L J W = x.Y &.hXVX&.u.M.|.h /.tX@X#X%X2X=X=X=X=X2X=X1X",
"&XwX*X. N d.4.2.s.-.4.d.:.=.y.d.J N L P L b A S S z k o.+.bXpXaXbX~.@.8Xk u.S.&XP.&X=X=X=X=X=X0X&X+X",
"*Xz.z.. c 0.=.>.y.4.:.:.;.;.-.-.N h N D S A C A N V $ o.|.).oX`.dXvXdX+.k ^.9X@XP.#X=X=X$X&X6X0X%X%X",
"z.z.w.O A f.=.y.s.4.4.d.4.=.( ( 3.W e J x _ b D A F , F.|.B._.V.Q.V.sXhXh 5.wX&X0XtX0X%X$XW.$X7XrX0X",
"Y.wXz.% L j.=.s.y.>.4.s.>.K J W T ! q N m / x F p p * :XF.B.'.)._.[.|.hXY C.@XK.Y.#X%X%X%X%X%X6X9X9X",
"@X1Xd.. N d.y.j.y.s.y.4.) K K ( i J m u / C C D / V ; jXS.{.{.|.B.|.F.H.V @X#XP.1X2XwXwXrXtX6X>X7X%X",
"2X>Xi.. N 4.s.>.s.s.r.P A A L S A R c 2 / p D D D 9 X C.! 5...Q o.Y 5.S.& ) 2XP.#X&X&X%X>X0X0XtXrXrX",
":X:Xh.- W i.d.:.s.r.P A b A L S S R : m / F D F F m 9 -XG.<X/.F.,XS./.-XJ J ;.0.) ( K K :.s./.%X0XeX",
", 0 = . $ H S c x 3 % 3 5 2 3 2 > : O y y O : : & ; & ! ! 1...3.1.4.| L =.3 % 5 5 3 3 < < < 3 j v j ",
"O.m.Q  .q d.r.4.s.A b 0.Y.d.0.z.f.w.w.8.;.> 0.Z.w.P.G.U.G.q.6.@Xq N k.>.0.=.k.l.l.l.k.k.h.p.p.p.r.,.",
"oX^.m.^.T qX>X%XY.#Xv z.0.d.K.@XY.z.Y.U.w.2 Z.I.Z.C.G.S.C.1.6.N } =XW.W.W.R.$X7XyX6X7XuX7X7X7X7X%Xj.",
"~.!.#.^.h +Xf.K.&Xz.b 2 P.j.#X0.e.8.e.w.) . J T M n B V M h V o =.=XW.k.$XW.$X7X$XW.R.R.R.p.R.R.s.=.",
"&.V.+.^.h 9X+X#XY.*Xz.u q.6.G.6.8._ _ 8.;.1 S.>X,X,X,X:X<XfXhX..=.W.W.W.7X$XW.W.W.R.R.R.p.p.p.R.h.:.",
"~.[.#.~.0 @Xj.z.z.=X#XS > e - * b x u x A $ 5.].].^.{.B.].:X|.I 3 l.r.r.R.R.p.t.t.t.p.R.R.R.p.a.h.=.",
"Q.~.#.~.j 9X#X#Xf.z.K._ q ;Xm.V Y.U.Y.#X-XM ^.8X|.XXoX[.pXpXpXV < =.l.l.k.r.t.,.} O.p.R.R.R.p.u.s.W ",
"`.~.!.a.h -X#X#X5X#X3X) V hXfXh P.*XP.@X9XM !.oXoXoXsX}.pX_.].I % <.D.j.h.y.y.r.t.y.p.y.u.p.y.y.4.K ",
".X.X.XO.< L P D p b D * 7 I T = @X*XP.@X9XH {.xXdXdXxXdXdXaXpXo.o ( 0.4.4.-.:.:.,.:.:.| Q W ;.;.-.A ",
"&.~.OXO., N P D P P m S ] ~ r n #XwX>X-X9Xg  .V.@.X.+.X.^ l ^ d o ) 8.2.2.4.4.y.y.h.s.4.;.3.2.2.d.K ",
"~.OX'.5.h I.;XU.L.U.J.L.L.T.b.B ;X#X+X#X>Xq e * o o + o o @ @   @ f { R / D R ( R ( =.W ) ;.-.K ( R ",
"H %.Y k - d.G.n.e.e.8.e.9.9.] y P.D.D.A.#Xi D K m Z m Z f f f t   > 6 6 : : 1 9 3 2 2 3 2 u 2 ; 2 2 "
};
