/* XPM */
static char *ZGFuZ2Fucm9ucGE_[] = {
/* columns rows colors chars-per-pixel */
"50 50 137 2 ",
"   c #000000",
".  c #0B0101",
"X  c #0B0B0B",
"o  c #110202",
"O  c #1C0404",
"+  c #141414",
"@  c #1B1B1B",
"#  c #250404",
"$  c #2A0504",
"%  c #340505",
"&  c #3E0606",
"*  c #242424",
"=  c #2D2D2D",
"-  c #343434",
";  c #3C3C3C",
":  c #430606",
">  c #4B0606",
",  c #550707",
"<  c #590707",
"1  c #540909",
"2  c #5E0808",
"3  c #620707",
"4  c #6D0607",
"5  c #660708",
"6  c #6B0708",
"7  c #444444",
"8  c #4C4C4C",
"9  c #515151",
"0  c #5C5C5C",
"q  c #646464",
"w  c #6A6A6A",
"e  c #737373",
"r  c #7C7C7C",
"t  c #848484",
"y  c #8A8A8A",
"u  c #939393",
"i  c #9E9E9E",
"p  c #9A9A9A",
"a  c #A0A0A0",
"s  c gray63",
"d  c #A2A2A2",
"f  c gray64",
"g  c #A4A4A4",
"h  c #A5A5A5",
"j  c gray65",
"k  c #A7A7A7",
"l  c #A4A4A4",
"z  c gray66",
"x  c #AAAAAA",
"c  c #ACACAC",
"v  c #AEAEAE",
"b  c #AAAAAA",
"n  c #B1B1B1",
"m  c #B2B2B2",
"M  c gray70",
"N  c #B4B4B4",
"B  c gray71",
"V  c #B7B7B7",
"C  c #B4B4B4",
"Z  c gray72",
"A  c #B9B9B9",
"S  c gray73",
"D  c #BBBBBB",
"F  c #BCBCBC",
"G  c gray74",
"H  c gray",
"J  c gray75",
"K  c #BBBBBB",
"L  c #C0C0C0",
"P  c #C1C1C1",
"I  c gray76",
"U  c #C3C3C3",
"Y  c #C5C5C5",
"T  c #C6C6C6",
"R  c gray78",
"E  c #C2C2C2",
"W  c #C8C8C8",
"Q  c gray79",
"!  c #CACACA",
"~  c #CBCBCB",
"^  c gray80",
"/  c #CDCDCD",
"(  c #CECECE",
")  c gray81",
"_  c #CACACA",
"`  c #D0D0D0",
"'  c gray82",
"]  c #D2D2D2",
"[  c gray83",
"{  c #D5D5D5",
"}  c gray84",
"|  c #D2D2D1",
" . c #D8D8D8",
".. c gray85",
"X. c gray86",
"o. c gainsboro",
"O. c gray87",
"+. c #DFDFDF",
"@. c gray87",
"#. c gray88",
"$. c #E1E1E1",
"%. c #E2E2E2",
"&. c #E4E4E4",
"*. c gray90",
"=. c #E6E6E6",
"-. c #E6E7E7",
";. c #E7E7E7",
":. c #E4E4E4",
">. c gray91",
",. c #E9E9E9",
"<. c #EAEAEA",
"1. c gray92",
"2. c #ECECEC",
"3. c gray93",
"4. c #EEEEEE",
"5. c #EFEFEF",
"6. c #E9E9E9",
"7. c gray94",
"8. c #F1F1F1",
"9. c gray95",
"0. c #F3F3F3",
"q. c #F4F4F4",
"w. c gray96",
"e. c #F6F6F6",
"r. c gray97",
"t. c #F4F4F4",
"y. c #F8F8F8",
"u. c #F9F9F9",
"i. c gray98",
"p. c #FBFBFB",
"a. c gray99",
"s. c #FDFDFD",
"d. c #FEFEFE",
"f. c white",
"g. c #FDFDFD",
"h. c None",
"j. c black",
/* pixels */
"h.h.h.h.h.h.h.h.h.h.h.h.h.h.h.h.h.h.h.h.h.h.h.h.h.h.h.h.h.h.h.h.h.h.h.h.h.h.h.h.h.h.h.h.h.h.h.h.h.h.",
"h.h.h.h.h.h.h.h.h.h.h.h.h.h.h.h.h.h.h.h.h.h.h.h.h.h.h.h.h.h.h.h.h.h.h.h.h.h.h.h.h.h.h.h.h.h.h.h.h.h.",
"h.h.h.h.h.h.h.h.h.          h.h.h.h.h.h.h.h.h.h.h.h.h.h.h.h.h.h.h.h.h.h.        h.h.h.h.h.h.h.h.h.h.",
"h.h.h.h.h.h.h.h.    8 e e -   h.h.h.h.h.h.h.h.h.h.h.h.h.h.h.h.h.h.h.                h.h.h.h.h.h.h.h.",
"h.h.h.h.h.h.h.    r / U K p *   h.h.h.h.h.h.h.h.h.h.h.h.h.h.h.h.h.                    h.h.h.h.h.h.h.",
"h.h.h.h.h.h.    h.f.f.4.~ J u *   h.h.h.h.h.h.h.h.h.h.h.h.h.h.h.h.                      h.h.h.h.h.h.",
"h.h.h.h.h.    h.f.f.f.f.*.A A y @   h.h.                  h.h.h.                        h.h.h.h.h.h.",
"h.h.h.h.h.    h.f.f.f.f.,.F A A t - X X ; 8 7 8 *                                         h.h.h.h.h.",
"h.h.h.h.h.  h.f.f.f.f.f.,.A A A A z t y J Y Y Q w                                         h.h.h.h.h.",
"h.h.h.h.h.  h.f.f.f.f.f.*.A A A A J Q +.y.p.p.f.y                                         h.h.h.h.h.",
"h.h.h.h.h.  h.f.f.f.p.p./ A A A / ,.9.f.f.f.f.f.y                                         h.h.h.h.h.",
"h.h.h.h.h.  0 q.f.f.f.p.` / >.,.p.f.f.f.f.f.p.f.y                                         h.h.h.h.h.",
"h.h.h.h.h.  - J %.p.4.p.p.p.f.f.f.f.f.p.p.f.f.f.y                                       h.h.h.h.h.h.",
"h.h.h.h.h.h.X t J Y Y q.f.f.p.f.f.f.f.f.f.f.f.f.y                                       h.h.h.h.h.h.",
"h.h.h.h.h.h.  8 V A  .p.f.f.f.f.f.p.f.p.p.f.f.f.y                                       h.h.h.h.h.h.",
"h.h.h.h.h.h.  8 A [ p.f.p.f.p.f.f.f.f.f.f.f.f.f.y                                     h.h.h.h.h.h.h.",
"h.h.h.h.h.h.+ t Q q.f.p.f.p.f.p.f.f.f.p.f.f.f.f.y                                       h.h.h.h.h.h.",
"h.h.h.h.h.  ; V *.f.f.f.f.f.f.f.p.f.f.f.p.f.p.f.y                               O .     h.h.h.h.h.h.",
"h.h.h.h.h.X r %.f.f.f.f.f.p.f.f.f.f.f.p.f.f.f.f.y                             . & .       h.h.h.h.h.",
"h.h.h.h.  - A q.f.f.p.f.f.f.f.f.f.f.f.f.p.f.f.f.y               o           . > < .       h.h.h.h.h.",
"h.h.h.h.  r 4.f.f.f.f.p.f.f.p.f.,.*.q.f.f.f.f.f.y             % 1 .       # > 4 , .         h.h.h.h.",
"h.h.h.  7 U p.f.p.f.f.f.f.p.f.Y ; * t p.f.f.f.f.y         o % 5 5 % # $ : 5 4 4 %           h.h.h.h.",
"j.j.h.  t 4.f.p.f.p.f.p.f.f.f.t     = 4.f.f.f.f.y       o > 5 < 2 5 5 5 2 3 4 5 O             h.h.h.",
"j.j.j.  u p.f.f.f.f.f.f.f.p.f.V @   w q.f.f.p.,.r       $ : $ . . : < $ . $ 3 %               h.h.h.",
"j.j.h.@ n f.f.f.f.f.f.f.f.p.p.f.j e 1.f.q.U l t w 8 8 * .         . .     . $                 h.h.h.",
"j.j.  7 >.f.a.f.p.f.p.f.f.f.f.f.f.p.*.j t i A 9.p.p.p.Y u - X                                 h.h.h.",
"j.j.X w ,.f.f.f.f.f.f.p.f.f.f.f.f. .u A *.p.f.p.4.9.f.f.f.*.e                                   h.h.",
"j.j.+ p 4.f.f.a.p.f.f.f.p.f.p.f.%.a *.f.f.f.9.e - ; j f.f.f.4.w                 X 9 +           h.h.",
"h.h.+ u 4.f.f.f.f.f.f.f.f.f.f.f.j U f.f.f.p.y       @ Y f.f.f.,.8               0 j @           h.h.",
"h.h.X e +.f.f.a.p.f.p.f.f.f.f.*.u 9.f.f.f.f.A 8 X @ w +.f.f.f.f.a X           9 Q a X           h.h.",
"h.h.  7 Y q.f.a.f.f.f.p.f.p.f.z J f.f.f.f.p.f.%.0 u 9.f.f.f.f.f.:.*       + * u +.-           h.h.h.",
"h.h.h.7 A *.f.f.p.f.f.f.f.f.f.u J f.f.p.f.f.f.q.r v f.p.f.p.f.f.[ @     @ t r u y             h.h.h.",
"h.h.h.= j  .f.f.f.f.f.f.f.f.f.y z 4.f.f.f.f.q.[ e j p.f.f.f.p.4.V @   * j %.t 7 X             h.h.h.",
"h.h.h.  t J *.f.f.f.p.f.p.f.f.j y U ` 4.9.*.Q J e u Q %.9.4.[ U j + - e i q.e                 h.h.h.",
"h.h.h.X t J  .f.p.f.f.f.f.f.f.4.u i J U U U V t 0 r V J J J J J r ; V p r v @                 h.h.h.",
"h.h.h.  q A Y q.f.f.p.f.f.f.f.f.,.y r r r r r q q y e t M M y r q A p.j 7 *                   h.h.h.",
"h.h.h.  - M A %.f.f.f.f.p.f.p.f.f.A 0 r e 7 t a w J u e 9 q t q r p.9.0                     h.h.h.h.",
"h.h.h.h.@ u A Q 9.f.p.f.f.f.f.f.f.` e Y +.j t q 0 ` 9.v w Q 4.a w y q X                     h.h.h.h.",
"h.h.h.h.  * p J / p.f.f.f.f.p.f.f.,.e J f.9.V 0 7 w a t 0 V a - +                           h.h.h.h.",
"h.h.h.h.h.  = i A ` q.p.f.p.f.f.f.q.A t +.f.p.%.+./ u r r r t -                           h.h.h.h.h.",
"h.h.h.h.h.h.  - j A Y %.q.f.f.f.f.f.+.z t V 5.f.f.f.p.f.,.V q X                         h.h.h.h.h.h.",
"h.h.h.h.h.h.h.  7 z A A Q %.q.f.f.f.p.` j t q y U J J U M 7 X                         h.h.h.h.h.h.h.",
"h.h.h.h.h.h.h.h.  - t A J A / *.q.f.f.h.+.U i e 7 X X X X                           h.h.h.h.h.h.h.h.",
"h.h.h.h.h.h.h.h.h.  @ q y M M U Y +.*.%.` A A J q                                 h.h.h.h.h.h.h.h.h.",
"h.h.h.h.h.h.h.h.h.h.    + - 7 y V A A A A A A F q                               h.h.h.h.h.h.h.h.h.h.",
"h.h.h.h.h.h.h.h.h.h.h.h.h.    + 9 u v A J F F U q                       h.h.h.h.h.h.h.h.h.h.h.h.h.h.",
"h.h.h.h.h.h.h.h.h.h.h.h.h.h.h.    + - e r r r r 7                   h.h.h.h.h.h.h.h.h.h.h.h.h.h.h.h.",
"h.h.h.h.h.h.h.h.h.h.h.h.h.h.h.h.h.h.                          h.h.h.h.h.h.h.h.h.h.h.h.h.h.h.h.h.h.h.",
"h.h.h.h.h.h.h.h.h.h.h.h.h.h.h.h.h.h.h.h.h.h.h.h.h.h.h.h.h.h.h.h.h.h.h.h.h.h.h.h.h.h.h.h.h.h.h.h.h.h.",
"h.h.h.h.h.h.h.h.h.h.h.h.h.h.h.h.h.h.h.h.h.h.h.h.h.h.h.h.h.h.h.h.h.h.h.h.h.h.h.h.h.h.h.h.h.h.h.h.h.h."
};
