/* XPM */
static char *dGlsZWFibGUtdHQ3MDAyMDY2X25tXzUweDUw[] = {
/* columns rows colors chars-per-pixel */
"50 50 22 1 ",
"  c #7F7EFB",
". c #7F7FFB",
"X c #7E7DFC",
"o c #7E7DFD",
"O c #7D7EFC",
"+ c #7D7EFD",
"@ c #7D7FFD",
"# c #7E7EFC",
"$ c #7F7EFC",
"% c #7E7FFC",
"& c #7F7FFC",
"* c #7E7EFD",
"= c #7F7EFD",
"- c #7E7FFD",
"; c #7F7FFD",
": c #807EFC",
"> c #807FFC",
", c #807FFD",
"< c #7E80FC",
"1 c #7F80FC",
"2 c #7F80FD",
"3 c None",
/* pixels */
"333##23333333#3333:##33#2333333233333:2#23333#2#23",
"3#:333333333333333###:##333333#3333#33#3333332#233",
"#:#3333333333333332.#2:3333#:2#33333333#333333#:##",
"#223333333333332333#2#3333#2#333333333#2#333#3####",
"23333333333333#333323333333333333333332#:#3233#:#2",
"33333333333333###333333##:333333#3#333.:.>33###23#",
"33#3333#3333322#33333###:3333323333333#2#33##2##3#",
"3#3333#:3333###23333##2#23333333333333##333#3#233#",
"223333#3333333#33333#2#2333#3333333333#2333###33#2",
"3333#23333333333333333:####:333333333333333###2333",
"3333333333333###333#33#:###2333333333333333#2:333#",
"3333#3333333332#:#3233#:#233333333333333233323332#",
"3333333#23:333#2#233##223#33333333333333333333333#",
"333333#333333##2#33####33233333333333333333333333#",
"3333333333333#2#3332##23#3##3333333333333333#33333",
"3333333333333##333#:2:33##:33333333333333333#33333",
"3333333333333333333###333#3333333333333333#::33333",
"33333333333333333332#2333#333#33333333###3333333##",
"333333333333333#233#23332233333:33333##:333333###2",
"323333333333333333333333##3333#3333332#233333##::3",
"333:33333333333333333333#2333323333332:23333#2#233",
"###33333333333333333#333333#3#333333333333333##23#",
":2:33333333333333333#3333####333333333##33333#2###",
"2#3333333333323333#::3333233333333333####33233###2",
"33333333333333#:33333333#3333333333333.#.>333##2#2",
"333333#333333#:#33333##22#3333#233333#2#.33###233#",
"3#333333333332##3333####:333333333333#2#3332#2:333",
"2#33333333332#2333332##233#3333333333#.#33#3##33#3",
"233333333333333333333##33333333333333#3333####33##",
"333#3333333333#:3333322##33333333333333333#:#2333:",
"3333333333333#2#33##3####33333333333333#333##333#2",
"33333333333333##:33###:2:33333333333333233332333#:",
"33333##332333#2#233#2#:3#33333333333333333333333#2",
"33333:3333333##2333:#:23#3##3333333333333333333323",
"3#23333333333:#333#3#233##:33333333333333333#33333",
"333333333333323333####3##2333333333333333333233333",
"333333333333333333###:3333333:333333333333333333#3",
"333333333333333#332#2333#3333333333333333333333#:3",
"333333333333333:3333333223333##33333333#2#33#:3##3",
"333333333333333333333333#2332#:333333333#:#3333#.2",
"333333333333333333333333:3333#:33233333###>33:###3",
"3333333333333333333#3333333###233333333##2333##223",
"3333333333333333333#3333333332#33333333##233#3##33",
"33333333333333333333333333333333333333323333#32#33",
"333:3333333333#333333###33333333333333333333###233",
"##2333333333#2##33#33#:2#3333333333333333#332##333",
"#333333333333####3333#2#23333333333333333#3##2:333",
"233333333#333#.2:3###2#3#3333333333333333332333333",
"33333#:3333332#2332.#:23#3333333333333#:23333333##",
"33###2333333###333:###3#:33333323333332##33333#:#:"
};
