/* XPM */
static char *MTQwOTI3MC1zbWFsbF81MHg1MA__[] = {
/* columns rows colors chars-per-pixel */
"50 50 210 2 ",
"   c #FEFEFE",
".  c white",
"X  c gray99",
"o  c #EFEFEF",
"O  c #EEEEEE",
"+  c #F3F3F3",
"@  c gray98",
"#  c gray96",
"$  c gray97",
"%  c #F8F8F8",
"&  c #F4F4F4",
"*  c #FBFBFB",
"=  c gray95",
"-  c gray94",
";  c #FDFDFD",
":  c #F1F1F1",
">  c #F6F6F6",
",  c #F9F9F9",
"<  c gray93",
"1  c #ECECEC",
"2  c #5B5B5B",
"3  c gray23",
"4  c #797979",
"5  c #777777",
"6  c #444444",
"7  c DimGray",
"8  c #EAEAEA",
"9  c #5D5D5D",
"0  c #9D9D9D",
"q  c #B9B9B9",
"w  c #888888",
"e  c gray47",
"r  c #747474",
"t  c black",
"y  c #5A5A5A",
"u  c #282828",
"i  c gray43",
"p  c gray80",
"a  c gray2",
"s  c #3C3C3C",
"d  c #353535",
"f  c #2F2F2F",
"g  c #313131",
"h  c #040404",
"j  c #0B0B0B",
"k  c #252525",
"l  c gray16",
"z  c gray77",
"x  c #D7D7D7",
"c  c #E2E2E2",
"v  c #6C6C6C",
"b  c #020203",
"n  c gray11",
"m  c #C4C2C2",
"M  c #DFDFDF",
"N  c #4C4C4C",
"B  c gray83",
"V  c #8E8E8E",
"C  c #070707",
"Z  c #010101",
"A  c #020000",
"S  c #020101",
"D  c #2A3233",
"F  c #D7D7D8",
"G  c gray24",
"H  c #7A7978",
"J  c gray52",
"K  c #010202",
"L  c #1F0000",
"P  c #403D3D",
"I  c gray22",
"U  c #CECECE",
"Y  c #BCBCBC",
"T  c #CBCBCB",
"R  c #939393",
"E  c #060606",
"W  c #340505",
"Q  c #090000",
"!  c #590707",
"~  c #8B0000",
"^  c #3C3838",
"/  c #F8FAFA",
"(  c gray79",
")  c #D2D2D2",
"_  c gray28",
"`  c gray29",
"'  c #4A0808",
"]  c #980D0D",
"[  c #800A0A",
"{  c #8E0E0E",
"}  c #393C3C",
"|  c #373737",
" . c #C8C8C8",
".. c gray90",
"X. c #7C7C7C",
"o. c #8B8B8B",
"O. c #181817",
"+. c #2D2D2D",
"@. c #2F3030",
"#. c #600404",
"$. c #350909",
"%. c #5C0000",
"&. c #0D0000",
"*. c #191E1E",
"=. c #3E3D3D",
"-. c #3A3A3A",
";. c gray84",
":. c gray60",
">. c gray36",
",. c #E1E0E0",
"<. c gray48",
"1. c #2E3635",
"2. c #848485",
"3. c #767473",
"4. c #3E3E3E",
"5. c #E1E1E1",
"6. c gray40",
"7. c #7B7B7B",
"8. c #161616",
"9. c #2D2A2A",
"0. c #888787",
"q. c #A39F9F",
"w. c #FCFBFB",
"e. c #2D2C2C",
"r. c #2C2C2C",
"t. c gray75",
"y. c gray25",
"u. c #6D6D6D",
"i. c #A8A7A6",
"p. c #F8F6F7",
"a. c #A8A7A7",
"s. c gray26",
"d. c #131314",
"f. c #B7B7B7",
"g. c #A4A4A4",
"h. c #989898",
"j. c #343433",
"k. c #272727",
"l. c gray58",
"z. c gray49",
"x. c #686868",
"c. c #6A6A6A",
"v. c #929292",
"b. c #838383",
"n. c #E6E6E6",
"m. c gray68",
"M. c #232323",
"N. c gray6",
"B. c gray1",
"V. c #020202",
"C. c #676767",
"Z. c gray56",
"A. c gray63",
"S. c gray4",
"D. c #C0C0C0",
"F. c gray67",
"G. c #646464",
"H. c #0E0E0E",
"J. c #343434",
"K. c #818181",
"L. c #868686",
"P. c gray39",
"I. c #DADADA",
"U. c #E4E4E4",
"Y. c gray91",
"T. c #323232",
"R. c #898989",
"E. c gray53",
"W. c gray8",
"Q. c gray82",
"!. c #C6C6C6",
"~. c #B1B1B1",
"^. c gray46",
"/. c #585858",
"(. c #393939",
"). c #C5C5C5",
"_. c #252424",
"`. c #F8F8F7",
"'. c #4B4B4B",
"]. c #545453",
"[. c #727170",
"{. c gray66",
"}. c #ACACAC",
"|. c #3F3F3F",
" X c gray18",
".X c gray85",
"XX c #555555",
"oX c #464646",
"OX c #191919",
"+X c gray17",
"@X c gray92",
"#X c #AAAAAA",
"$X c #606060",
"%X c gray62",
"&X c gray61",
"*X c gray27",
"=X c #A2A2A2",
"-X c #1D1D1D",
";X c gray20",
":X c gray5",
">X c #A7A7A7",
",X c gray76",
"<X c #BBBBBB",
"1X c gray10",
"2X c gray13",
"3X c gray87",
"4X c gray7",
"5X c #DDDDDD",
"6X c #CDCDCD",
"7X c LightGray",
/* pixels */
"      . X o o o O + .     . @ O o o O # .     . $ O o o O % .     . & O o o o * .       = o o o - ; ",
"        X o o o O =       . @ O o o O # .     . $ O o o O % .     . & O o o o * .       : O o o - ; ",
"        X o o o O =       . @ O o o O # .     . $ O o o O % .     . & O o o o * .       : O o o - ; ",
".     . X o o o O = .     . @ O o o O # .     . $ O o o O % .     . & O o o O * .       : O o o - ; ",
"= = = = + * * * X @ = = = : # X * * X % : = = : $ X * * X > : = = : , X * * X & : = = = @ X * X * + ",
"o O O O :   .   . * O O o < + .     . % < o o < $ .     . # < o o < @ .     . = O o O o X .   .   - ",
"- o o o :     ;   * o o - O &   ; ; . % O - - O $ . ; ; . # O - - o , . ;     + o - o - X       ; : ",
"O O O O : . . . . X O O O < + . . . . % < O O < $ . . . . # < O O < @ . . . . = < O O O ; . . .   - ",
", , , , , & & & & # , , , , % & & & = & $ , , @ $ & & = : # , , , , > & & & & % , , , , # & & & # , ",
". . . . ; O O O < = . . . . @ < O O @ . . ;   . > 1 1 % * . .   . . & < O O O * . . . . : < O O o   ",
"    ;   X - o - o +   ; ;   @ O = O 2 3 4 . ; . $ < * 5 6 7 . . ;   & o - - o *   ;     = o - o : ; ",
". . . . ; O O O < = . . . . @ O 8 9 0 q w e .   $ $ r t t t y . . . & < O O < * . . . . : < O O o   ",
"$ $ $ $ $ $ $ $ $ $ $ $ $ $ > % = u i . p a s d f g h t j k l & % > $ $ $ $ $ $ $ $ $ $ $ $ $ $ $ $ ",
"O O O < - . . . . X < O O < + . . z 3 < @ x c v t t t b t n m # < < @ . . . . = < O O O ; . . .   - ",
"- o - o = ;   ;   * o - - o + . M N B . X . . V t C Z A S t D F : O ,   ; ;   + o - o - X   ;   ; : ",
"O O O < - . . . . X O O O < + . G H   . . . . J t h A t t K L P + 1 @ . . . . = < O O O ; . . .   - ",
"& & & & # , , , , % & & & & >   I U . = Y T . R t E t W Q ! ~ ^ / + $ , , , , > & & & & , , , , , # ",
". . . . ; O O O < = . . . . @ = I ( . ) t _ , ` t t ' ] [ { t } . . + < O O O * . . . . : O O O o   ",
"        X - o - o +     ;   , + |  .. ..7 X.o.O.+.@.#.$.%.&.*.=..   & O - o o *   ;     = o - o - ; ",
". .   . ; o O o O = .     . @ = -.;.. @ . :.>.8 ,.<.t t 1.2.3.4.. . + < o O O * .   . . : O o O -   ",
"X * * X @ = = = : & X * * X % $ l <..     5.e 6.7.8.9.0.q.w.e.r.. * # : = = = , X * * * + = = = + * ",
"o o o O :       . * O o o O = . t.n <.X X . < y.t u.i.p.a.s.d.f.: < @ .     . + O o o o X .   . ; - ",
"o o o o :       . * o o o < # . e g.U @ . $ . h.t s j.d k.t a r > O % .       + O o o o X       ; : ",
"o o o O :       . * O o O - > i l.  . ; . * . z.t t t t t h t t x.& * .     . = O o o o X .     ; - ",
"- - - - = ; ; ;   * - - o + c.v.b.4.n.. . m.r.M.N.B.t B.V.t V.h t c.; X ; ;   + o - - - *   ; ; X = ",
"; ; ; ; X - - - - + ; , . C.Z.A.S.D.. . F.G.& 8   r t Z Z t H.J.t t r . 1 - - @   ; ; ; = - - - : X ",
"      . X o o o O = . * . K.L.P.Z I.. ( s . U.8 Y...N t B.t j T.N.E R.X 1 o O * .       : O o O - ; ",
"        X o o o O =     * . E.T.W.Q.. !.G . ~.4 ^.( 2 t B.t t N.B./.. 8 o o o * .       : o o o - ; ",
".     . X o o o O = .       . X (.( . )._.`.U.x.r ( -.t V.Z t 8.'.h.  1 o o O * .       : O o o - ; ",
"= = = = + * * * X @ = = = : + . s  .. Y.].[.{.( }.W.j t t B.t |.. , $ X * * X & : = = = @ X * X * + ",
"o O O O :   .   . * O O o < + .  X.X. . = XXoXL.C.OXt Z t h t +X: @X@ .     . = O o O o X .   .   - ",
"- o o o :     ;   * o o - O + . #X$X%X. . 8 &X*Xt Z Z t V.t C =X= O , . ;     + o - o - X       ; : ",
"O O O O : . . . . X O O O < + . . A.-XR.. Q.C.;Xt t Z V.t :X>XX O < @ . . . . = < O O O ; . . .   - ",
", , , , , & & & & # , , , , % + $ - l ,XO -.+X<Xt.4.t V.t 1X% @ % @ > & & & & % , , , , # & & & # , ",
". . . . ; O O O < = . . . . @ < O 1 q '.2X6 = . . 3X3 t 4X<X.   . . & < O O O * . . . . : < O O o   ",
"    ;   X - o - o +   ; ;   @ o o = = p ) @X. * + # 5X6X7X; . ; ;   & o - - o *   ;     = o - o : ; ",
". . . . ; O O O < = . . . . @ < O O 1   . . ; . $ @X= > + $ . . . . & < O O < * . . . . : < O O o   ",
"$ $ $ $ $ $ $ $ $ $ $ $ $ $ $ $ $ $ $ # # # $ $ $ $ > # # $ $ $ $ $ $ $ $ $ $ $ $ $ $ $ $ $ $ $ $ $ ",
"O O O < - . . . . X < O O < + . . . . , < O O < $ . . . . # < O O < @ . . . . = < O O O ; . . .   - ",
"- o - o = ;   ;   * o - - o &   ; ;   % o - - O $ . ; ; . > O - - o ,   ; ;   + o - o - X   ;   ; : ",
"O O O < - . . . . X O O O < + . . . . , < O O < $ . . . . # < O O < @ . . . . = < O O O ; . . .   - ",
"& & & & # , , , , % & & & & > , , , , $ & & & & $ @ , , @ > & & & & % , , , , > & & & & , , , , , # ",
". . . . ; O O O < = . . . . @ < O O < # . . . . $ < O O < % . . . . & < O O O * . . . . : O O O o   ",
"        X - o - o +     ;   @ o o - O # . ; ; . $ O - - O % . ; ; . & O - o o *   ;     = o - o - ; ",
". .   . ; o O o O = .     . @ O o o < # .     . $ < o o < % .     . & < o O O * .   . . : O o O -   ",
"X * * X @ = = = : & X * * X , : = = : > X * * X $ : = = : % X * * X # : = = = , X * * * + = = = + * ",
"o o o O :       . * O o o O & .     . % O o o O $ .     . # O o o O @ .     . + O o o o X .   . ; - ",
"o o o o :       . * o o o O & .     . % O o o O $ .     . # O o o O , .     . + O o o o X       ; : ",
"o o o O :       . * o o o O & .     . % O o o O $ .     . # O o o O , .     . + O o o o X       ; : ",
"o o o o :       . * o o o O & .     . , O o o O $ .     . > O o o O @ .     . + O o o o X .     ; : "
};
