/* XPM */
static char *cG9ydGFsMl8zMHgzMC4_[] = {
/* columns rows colors chars-per-pixel */
"30 30 186 2 ",
"   c #0A0002",
".  c #11040E",
"X  c #050122",
"o  c #1C012C",
"O  c #1E082E",
"+  c #180727",
"@  c #0C0C3E",
"#  c #15003E",
"$  c #1A003B",
"%  c #140736",
"&  c #220029",
"*  c #230B2F",
"=  c #210032",
"-  c #280032",
";  c #21003B",
":  c #2C013B",
">  c #250A33",
",  c #3A053B",
"<  c #32123B",
"1  c #38203A",
"2  c #230444",
"3  c #280047",
"4  c #2C004A",
"5  c #260A45",
"6  c #36004C",
"7  c #39004E",
"8  c #390A48",
"9  c #2E0055",
"0  c #2D005E",
"q  c #250954",
"w  c #350954",
"e  c #36005A",
"r  c #3A005D",
"t  c #380554",
"y  c #2C1253",
"u  c #361559",
"i  c #27046A",
"p  c #280069",
"a  c #2C0963",
"s  c #370062",
"d  c #3F0060",
"f  c #34006B",
"g  c #3F086E",
"h  c #390568",
"j  c #3C1662",
"k  c #360074",
"l  c #3E0075",
"z  c #3E077C",
"x  c #35057D",
"c  c #42034A",
"v  c #46134C",
"b  c #44015F",
"n  c #43095E",
"m  c #490B65",
"M  c #490069",
"N  c #420E6C",
"B  c #460865",
"V  c #50006F",
"C  c #51096C",
"Z  c #400072",
"A  c #4D0372",
"S  c #4E0E74",
"D  c #40007E",
"F  c #4D017D",
"G  c #470E75",
"H  c #52007C",
"J  c #511F74",
"K  c #670A7B",
"L  c #4F2567",
"P  c #51266B",
"I  c #645A5B",
"U  c #6E587F",
"Y  c #735172",
"T  c #796272",
"R  c #3C0089",
"E  c #3F1082",
"W  c #4B0084",
"Q  c #48068E",
"!  c #480B8A",
"~  c #590183",
"^  c #52008A",
"/  c #571289",
"(  c #4E039B",
")  c #590392",
"_  c #591196",
"`  c #640B85",
"'  c #6A198F",
"]  c #610B93",
"[  c #690C90",
"{  c #641797",
"}  c #671299",
"|  c #6B1198",
" . c #70129E",
".. c #672890",
"X. c #69259E",
"o. c #5700A8",
"O. c #5901AD",
"+. c #5B11A2",
"@. c #6D08A7",
"#. c #7701AD",
"$. c #6600B7",
"%. c #7A04B9",
"&. c #7F0BB8",
"*. c #7C08B6",
"=. c #771CBF",
"-. c #7B11B1",
";. c #761AA9",
":. c #77508F",
">. c #7501C6",
",. c #8012A9",
"<. c #861DAB",
"1. c #8320AF",
"2. c #9125B7",
"3. c #804389",
"4. c #885E90",
"5. c #82638C",
"6. c #8B699B",
"7. c #8D729D",
"8. c #8944A8",
"9. c #915EAD",
"0. c #8F79A7",
"q. c #9E69B9",
"w. c #9978B1",
"e. c #A261A1",
"r. c #A27BA8",
"t. c #810AC6",
"y. c #8714C7",
"u. c #8A2BCF",
"i. c #9D3CD7",
"p. c #8F61C4",
"a. c #AD66CC",
"s. c #AA78CD",
"d. c #AA64E0",
"f. c #E76EF7",
"g. c #A481A9",
"h. c #A98BBD",
"j. c #B491BB",
"k. c #A386C0",
"l. c #BA84C2",
"z. c #B99FCE",
"x. c #BB91C1",
"c. c #B388D0",
"v. c #B7ADCF",
"b. c #BEA6D8",
"n. c #C99ACE",
"m. c #C28CD7",
"M. c #C494D2",
"N. c #D296DE",
"B. c #CEADD8",
"V. c #CFB5D6",
"C. c #D898FF",
"Z. c #D8B2E3",
"A. c #C7ABE5",
"S. c #FFA7FF",
"D. c #F4ACFF",
"F. c #D8CAD9",
"G. c #F5FFDA",
"H. c #FCF8D2",
"J. c #DFCCEA",
"K. c #DFD4E5",
"L. c #EFCFE4",
"P. c #E7CBE9",
"I. c #FEC8E2",
"U. c #EAC7FD",
"Y. c #EBDBF8",
"T. c #FFD4FF",
"R. c #FEDCFF",
"E. c #F2DBF8",
"W. c #EAF2E7",
"Q. c #FCFDE2",
"!. c #F5FFEA",
"~. c #FAFCEB",
"^. c #FEECF5",
"/. c #FFECFE",
"(. c #F6E6FA",
"). c #E9FFF1",
"_. c #EDFCFC",
"`. c #E3FFFB",
"'. c #F2F4F2",
"]. c #FEF3F3",
"[. c #F5FCF5",
"{. c #FAFDF6",
"}. c #F7F5F8",
"|. c #FEF4FF",
" X c #F6FDFD",
".X c #FFFEFE",
/* pixels */
".X.X.X.X.X.X.X.X.X.X.X.X.X.X.X.X.X.X.X.X.X.X.X.X.X.X.X.X.X.X",
".X.X.X.X.X.X.X.X.X.X.X.X.X.X.X.X.X.X.X.X.X.X.X.X.X.X.X.X.X.X",
".X.X.X.X.X.X.X.X.X.X.X.X.X.X.X.X.X.X.X.X.X.X.X.X.X.X.X.X.X.X",
".X.X.X.X.X.X.X.X.X.X.X.X.X.X.X.X.X.X.X.X.X.X.X.X.X.X.X.X.X.X",
".X.X.X.X.X.X.X.X.X.X.X.X.X.X.X.X.X.X.X.X.X.X.X.X.X.X.X.X.X.X",
".X.X.X.X.X.X.X.X.X.X.X.X.X.X.X.X.X.X.X.X.X.X.X.X.X.X.X.X.X.X",
".X.X.X.X.X.X.X.X.X.X.X.X.X.X.X.X.X.X.X.X.X.X.X.X.X.X.X.X.X.X",
".X.X.X.X.X.X.X.X.X.X.X.X.X.X.X.X.X.X.X.X.X.X.X.X.X.X.X.X.X.X",
".X.X|.|.{.(..X.X_..X^./. X XW.Q..X~.Q.!._. X X{..X.X{..X|..X",
".X X|..X.X.X.X'._..X{.^.Y.A.s.a.q.9.c.U.|..X].{..X.X{.{..X.X",
".X.X{..X{..X.X[.{.F.j.6.P 9 f W t 9 f ..n.^.^..X.X[.{.{..X.X",
".X{.{..X[.'..X.XI.3.Z Q z h j w . > 3 2 L 7.v.}..X.X{..X X|.",
".X{.{.{.}.|..XK.e.B p R k e w $ O O : 6 d 0 u 0.(..X.X.X X.X",
"|..X.X{..X.XE.5.a q y t d ~  .} +.F M ` ;.] 7 , V./.{.{..X[.",
"{..X.X{..X|.Z.v x u * , ` &.%.-.y.-.@.~ G B : & h./..X{..X[.",
".X{.{..X|./.M.3 ^ M 8 B @.>.i.D.f.2.) g 5 + X @ w.|..X}..X[.",
".X{.{.[. X|.k.% n g $ 8 / O.d./.S.u._ S h -   % j.|..X[..X}.",
"{.{.{..X.X.Xz.u l _ N c H %.t.1.1.[ } W d n 3 X r./..X[..X.X",
".X{.{.{..X.XP.7.$ 0 z h H #.&.,.1.` V ) ' { ! O r./..X{..X.X",
".X.X.X[.{.{.|.J.I > i ! S B e S $.[ V | ] R X.4.V..X.X[..X.X",
".X.X{.{.{..X.X|.b.u # $ < < 5 i +.>.M 7 f W l.L./..X X[..X|.",
"|..X.X.X{.{..X.X/.N.8.V - + o # W ( 4 v 8.c.^./.|..X{..X.X.X",
" X.X.X.X.X.X}..X^.|.T.C.p.U T Y m J :.B.R./..X'..X{.[..X.X.X",
" X.X.X}..X.X.X.X`.G.H..X.X[..X/.R.L.(.|.~.Q. X)..X.X{..X|.|.",
".X.X.X.X.X.X.X.X.X.X.X.X.X.X.X.X.X.X.X.X.X.X.X.X.X.X.X.X.X.X",
".X.X.X.X.X.X.X.X.X.X.X.X.X.X.X.X.X.X.X.X.X.X.X.X.X.X.X.X.X.X",
".X.X.X.X.X.X.X.X.X.X.X.X.X.X.X.X.X.X.X.X.X.X.X.X.X.X.X.X.X.X",
".X.X.X.X.X.X.X.X.X.X.X.X.X.X.X.X.X.X.X.X.X.X.X.X.X.X.X.X.X.X",
".X.X.X.X.X.X.X.X.X.X.X.X.X.X.X.X.X.X.X.X.X.X.X.X.X.X.X.X.X.X",
".X.X.X.X.X.X.X.X.X.X.X.X.X.X.X.X.X.X.X.X.X.X.X.X.X.X.X.X.X.X"
};
