/* XPM */
static char *cG9ydGFhbF81MHg1MA__[] = {
/* columns rows colors chars-per-pixel */
"50 50 158 2 ",
"   c #8F42B9",
".  c #9145BA",
"X  c #9348BB",
"o  c #9954BE",
"O  c #A44CB9",
"+  c #A94EB9",
"@  c #A653BC",
"#  c #AB53BB",
"$  c #AE5ABE",
"%  c #B05DBE",
"&  c #9C59C0",
"*  c #A262C3",
"=  c #A76CC7",
"-  c #B264C1",
";  c #B56CC4",
":  c #AD73C8",
">  c #AE7ACC",
",  c #B371C7",
"<  c #B974C7",
"1  c #B377C8",
"2  c #B37CCB",
"3  c #BB7CCA",
"4  c #B484CE",
"5  c #BB83CD",
"6  c #BC89CF",
"7  c #B78CD0",
"8  c #BA8BD1",
"9  c #BD93D3",
"0  c #BF99D5",
"q  c #C186CD",
"w  c #C38ACE",
"e  c #C38ED0",
"r  c #C594D2",
"t  c #C997D3",
"y  c #C49CD5",
"u  c #CA9CD4",
"i  c #C59FD8",
"p  c #C5A1D6",
"a  c #CBA2D6",
"s  c #CAA8D7",
"d  c #C6A3D9",
"f  c #CBA5D9",
"g  c #C7A8D9",
"h  c #CCABDB",
"j  c #D0A9D7",
"k  c #D0A7D8",
"l  c #D2ACDB",
"z  c #CEB1DD",
"x  c #D3B4DD",
"c  c #D8B6DE",
"v  c #D4BADF",
"b  c #D8B9DE",
"n  c #D3B6E0",
"m  c #D5BCE1",
"M  c #DABEE1",
"N  c #D7C1DF",
"B  c #D6C1E2",
"V  c #D9C5E3",
"C  c #DCC6E3",
"Z  c #D9C5E4",
"A  c #DAC5E4",
"S  c #D9C6E4",
"D  c #DAC7E4",
"F  c #DBC3E3",
"G  c #DBC8E2",
"H  c #DBC8E4",
"J  c #DBCAE5",
"K  c #DBC8E6",
"L  c #DCC9E5",
"P  c #DCCAE5",
"I  c #DDCBE5",
"U  c #DCC9E6",
"Y  c #DCCAE6",
"T  c #DCCCE6",
"R  c #DDCCE6",
"E  c #DDCDE6",
"W  c #DFCEE7",
"Q  c #DFCFE7",
"!  c #DECCE6",
"~  c #DECBE5",
"^  c #DFD1E7",
"/  c #DFD0E7",
"(  c #E0C7E4",
")  c #E0CFE6",
"_  c #E1CFE6",
"`  c #E1CCE6",
"'  c #E2D1E7",
"]  c #E0D1E8",
"[  c #E0D2E8",
"{  c #E1D2E8",
"}  c #E3D3E8",
"|  c #E3D4E9",
" . c #E2D5E9",
".. c #E3D5E9",
"X. c #E3D6E9",
"o. c #E3D7E9",
"O. c #E4D7E9",
"+. c #E3D4E8",
"@. c #E3D8E9",
"#. c #E3D8EA",
"$. c #E4D8EA",
"%. c #E4D9EA",
"&. c #E4D9EB",
"*. c #E5DBEA",
"=. c #E5DAEB",
"-. c #E6DAEA",
";. c #E6DBEA",
":. c #E7DBEA",
">. c #E7DAEB",
",. c #E6DBEB",
"<. c #E5DCEA",
"1. c #E6DCEB",
"2. c #E7DDEB",
"3. c #E7DDEC",
"4. c #E7DEEC",
"5. c #E7DFEC",
"6. c #E6DAEA",
"7. c #E8DDEC",
"8. c #E9DEEB",
"9. c #E8E0EC",
"0. c #E8E1EC",
"q. c #E8E0ED",
"w. c #E9E0ED",
"e. c #E9E2ED",
"r. c #EBE2ED",
"t. c #EAE3EE",
"y. c #EBE5EE",
"u. c #EBE6EE",
"i. c #ECE5EE",
"p. c #ECE6EF",
"a. c #ECE7EF",
"s. c #EBE3ED",
"d. c #EDE8EF",
"f. c #EEE8EF",
"g. c #EDEAEF",
"h. c #EEE9EF",
"j. c #EEEAF0",
"k. c #EFEBF0",
"l. c #EFECF0",
"z. c #EFECF1",
"x. c #EFEDF1",
"c. c #EFEBF0",
"v. c #F0EEF1",
"b. c #F1EFF1",
"n. c #F0EEF1",
"m. c #F1F0F2",
"M. c #F1F1F2",
"N. c #F2F1F2",
"B. c gray95",
"V. c #F2F2F3",
"C. c #F3F2F3",
"Z. c #F3F3F3",
"A. c #F3F4F3",
"S. c #F4F5F3",
"D. c #F4F6F4",
"F. c #F5F7F4",
"G. c #F3F3F3",
"H. c #F6F9F5",
/* pixels */
"Z.Z.Z.Z.Z.A.Z.b.Z.Z.Z.A.b.A.b.A.A.Z.A.b.Z.A.b.A.Z.b.A.Z.A.@.g.A.A.b.A.b.A.A.A.Z.b.Z.Z.b.A.A.b.Z.b.A.",
"Z.Z.Z.Z.Z.b.A.A.M.Z.b.Z.A.Z.A.A.b.A.Z.A.A.b.A.Z.Z.A.b.A.e.p d.A.A.A.A.Z.Z.A.A.b.A.A.A.A.b.Z.A.A.Z.A.",
"Z.Z.Z.A.Z.A.Z.b.Z.Z.Z.Z.b.Z.b.A.A.A.A.b.A.A.b.Z.A.A.A.A.U h d.A.A.b.A.b.Z.Z.b.Z.b.Z.Z.b.A.A.b.Z.b.Z.",
"Z.Z.g.A.b.A.b.Z.Z.M.Z.Z.A.A.A.b.Z.b.A.A.b.A.A.Z.Z.b.Z.e.B B d.Z.b.A.A.A.Z.Z.A.Z.A.Z.A.A.A.b.A.Z.A.A.",
"A.b.Z.A.A.A.A.b.Z.Z.Z.Z.M.A.A.V.Z.b.A.Z.b.A.A.A.Z.Z.A.@.m U Z.Z.A.b.A.b.A.A.Z.A.b.A.A.Z.Z.b.A.A.b.Z.",
"A.A.b.A.b.A.b.A.A.M.Z.Z.A.A.A.V.A.A.A.b.Z.A.b.A.Z.Z.Z.T m @.Z.Z.b.Z.A.Z.Z.A.b.A.A.A.A.b.A.A.b.A.A.Z.",
"Z.A.Z.b.A.b.A.A.Z.A.A.M.A.M.V.V.b.Z.b.Z.Z.A.A.A.Z.Z.u.B V 9.Z.Z.Z.Z.Z.A.Z.Z.Z.b.Z.A.b.A.b.Z.Z.A.A.b.",
"b.Z.Z.Z.A.Z.A.A.M.A.M.M.A.M.D.V.A.A.A.A.Z.b.Z.b.M.Z. .V U d.Z.M.A.A.b.A.b.Z.A.A.Z.b.A.A.A.A.Z.b.A.A.",
"A.A.A.Z.Z.M.Z.Z.Z.Z.Z.M.V.V.V.V.Z.Z.Z.Z.A.A.A.A.A.d.R R ] v.Z.Z.Z.Z.Z.Z.Z.Z.Z.b.A.b.Z.A.Z.Z.S.b.Z.A.",
"b.A.A.b.Z.Z.Z.Z.M.Z.M.Z.V.V.V.D.Z.Z.k.u.e.<.=.=.<.V Z R ] Z.A.Z.A.Z.Z.Z.M.Z.A.A.A.A.b.A.b.Z.S.S.Z.b.",
"Z.A.A.Z.A.Z.A.A.Z.Z.Z.A.D.M.q.T m h h 9 d d d d y 9 9 y y v R <.z.A.Z.Z.Z.Z.Z.b.A.Z.b.A.Z.Z.Z.b.A.A.",
"b.A.A.b.V.Z.V.V.Z.A.Z.9.B h d d g 9 = & > B ^ U z Z h n y h f p h F @.Z.Z.Z.b.Z.A.b.Z.A.b.Z.S.b.A.b.",
"A.Z.A.A.b.A.V.A.b.@.d 7 i z Z ^ q.>     X z H.e.h V v { V  .6 z n y r z | v.D.C.Z.A.A.Z.Z.N.N.S.b.A.",
"A.b.b.A.b.A.A.q.h 0 7 9 z B ^ x.A.g o & * h R U h m v s V x p  .v.O.c f a x >.C.A.b.A.b.S.N.N.S.Z.A.",
"A.b.Z.A.A.A.V d g h z T D.j.S h h d p g h m m m z m v z p v G v C.D.Z.=.n l f F v.A.Z.b.Z.N.N.Z.b.Z.",
"A.Z.b.A.g.z d h K V.&.S q.S B m n m m m y d h d y 9 h s h y z y m =.Z.D.Z._ l h l d.A.A.S.N.N.Z.A.A.",
"V.V.D.z.g g z ^ D.D.^ p z m U 5.q.j.j.t.h n d m v y d s z y s h p s x @.e.d.<.x f p s.D.N.N.N.S.Z.Z.",
"V.D.z.g g g ^ q.^ <.z 7 B q.M.E <.<.<.q.n K K z z p r z x ^ s s t s b v a p Z F w u f v.N.N.N.S.Z.Z.",
"V.V.m d g 3.T 4 4 g z p M.A.@.@.A.V.u.E g r h h 8 p x v v.Z.r.l t s x s k l ; @ @ < l x N.S.N.C.Z.Z.",
"V.4.9 g K D.^ h 0 z T h U ^ Z V.<.z y h Z g f x x h y 6 h _ ` h l N b :.m u O O O ; l u +.S.N.N.Z.Z.",
"V.z 0 d g.^ J g g z z z ] n z h d h e.d.d.O.p y d N r s p x s p p I I x ' l q w u =.c x a Z.S.b.Z.N.",
"t.0 g n z m z z n ^ g S ^ B h 9 h q.D.v.d.P x 9 v x z b 1 u l b x w ' :.] l u M Z.S.>.j a >.S.b.Z.N.",
"K d 9 g <.V.m z ^ T ^ j.m @.h F d U e.>.8.h h e y v m f 3 a s a l r s.S.S.s.j u F ' 8.j a b C.S.Z.N.",
"g g 7 a.D.a.z v j.B j.q.E x ] h d 9 m Z h f m m f h C 6 6 s b x 5 u ' S.Z.S.b c =.r.+.u q k C.S.Z.N.",
"d g g H.t.[ z z g.B d.U u.y e.V U f n ] x  .A.V.8.l U 2 x ] ` r.t ' ` l.N.S.` j >.S.i.u e a C.C.Z.N.",
"d z d a.d 4 i z z.m ^ 5.d.p e.C s.m ] h y ] v.M.>.p 5 r d.v.8.] t r.8.:.S.S.( j M ` +.c c k C.C.N.Z.",
"g g 4 T n 0 d g U h m A.u.m e.m e.m n.x V m x l c ~ 3 c 8.8._ u t 8.i.' N.k.l w M >.i.l j l C.C.N.S.",
"K 9 9 g B t.m z  . .h ] R =.h m h =.O.h ] b c b b V 3 s C F M e b ' ( l F l q w l l c t t l r.N.S.N.",
"t.0 h Z B z g d z ^ d v P B h 6 C =.h s m 8.v.v.F r ; l ] 8.l c b.f.' t k t q l ( b l t t c l ( v.Z.",
"V.z g h x.a.#.z f x U z F x x l f x c ~ =.z.Z.P F u h m l l b 8.' :.c t k t q < % # # $ ; M ( l F b.",
"V.t.0 h K V.M.&.d z =.d.f q.v.=.N h h b F m b u m 3 l l l N  .e.r.( t k t q # + # ; - + % t ( ( j ` ",
"V.V.B i g &.a.g : y h =.m e.S.Z.f.] P P x r 5 l u 5 C ` +.s.d.=.( 8.k t t % + $ l f.r.q ; u w >.j b ",
"V.A.V.z d p O.F f B m n u | D.V.Z.Z.r.' m M a f.f k >.r.r.+.( :.f.+.q q ( q % # c k.r.w 3 ( j :.j b ",
"V.V.A.M.s y h  .Z.Z.n._ i a ` e.Z.S.S.v.x a u l 3 x | ' >.r.f.+.c j k k ` k # + $ < ; # # < ( M l ` ",
"V.V.M.A.g.v p s B n.S.S.P f x x m ' 8.8.x l ' m e n 8.r.+.( c l b r.f.c j c q % $ + # % 3 b ( j N Z.",
"V.A.A.V.A.A.I p p z ] v.>.C k.O.F h t a F c M e t k k u l M } f.S.S.N.( t t u a b c c M ( c j M v.A.",
"V.A.Z.M.Z.Z.A.e.c p h n m m v.5.` m u c x x l q k - # # t V.F.C.f.' b c t k b c l c c l c ( :.B.Z.b.",
"V.Z.Z.Z.M.Z.A.A.Z.>.m k e 3 a l O.O.| ` F ( u u P # + + ; O.' M l j k b >.Z.N.b.r.r.:.i.b.S.S.B.Z.A.",
"V.Z.Z.Z.Z.Z.Z.b.Z.Z.Z.r.` p f f a l l l b b w u ( e - < t l a l c N i.N.Z.C.C.Z.S.S.S.B.B.B.B.B.b.A.",
"A.Z.M.Z.b.Z.b.Z.Z.Z.Z.Z.Z.C.s.| V l u t u r 3 u k l u l c F ` i.b.S.C.S.b.C.Z.Z.B.B.B.B.S.B.B.S.Z.A.",
"A.A.b.Z.b.A.b.A.Z.Z.Z.Z.b.Z.Z.Z.S.r.' ( C O.8.8.r.s.d.v.A.A.A.Z.A.b.A.b.Z.Z.b.Z.B.S.N.N.S.N.N.S.b.A.",
"A.b.A.Z.A.A.A.b.Z.Z.Z.Z.Z.Z.Z.b.Z.r.` _ O.Z.Z.Z.A.Z.A.A.A.A.b.A.A.Z.A.A.Z.A.A.Z.B.B.S.S.S.N.N.N.Z.A.",
"Z.b.A.A.b.A.b.A.Z.Z.Z.Z.b.A.b.A.S.>.C ( f.Z.Z.Z.Z.b.A.Z.Z.Z.A.A.b.A.A.b.Z.Z.Z.A.B.S.S.b.S.b.S.N.b.A.",
"Z.A.A.b.A.A.Z.Z.v.Z.Z.Z.A.A.A.b.S.O.b _ b.Z.Z.Z.b.S.b.A.A.b.A.b.A.A.Z.A.b.Z.S.b.S.B.b.S.b.S.S.b.A.A.",
"b.A.Z.b.A.Z.Z.Z.b.A.A.b.A.b.A.A.Z.` b >.A.b.A.b.A.A.Z.Z.B.B.A.A.Z.Z.b.A.Z.A.Z.A.S.N.N.Z.N.S.N.N.Z.b.",
"A.A.A.A.A.b.Z.Z.A.A.B.A.A.Z.Z.A.d.( C s.A.Z.A.A.b.S.b.Z.B.A.A.b.Z.Z.Z.A.b.S.Z.b.S.N.N.Z.N.S.S.N.A.A.",
"b.Z.Z.b.A.Z.Z.Z.b.A.Z.b.A.b.Z.A.r.b ~ v.A.A.Z.b.Z.A.A.A.A.b.A.b.Z.Z.b.A.N.S.S.N.Z.N.N.S.N.Z.N.N.Z.b.",
"A.Z.A.A.A.b.Z.A.A.A.b.Z.A.Z.Z.A.8.j +.A.A.b.A.A.b.A.b.Z.b.Z.A.Z.Z.Z.Z.A.b.Z.Z.N.S.N.N.S.N.Z.S.N.A.Z.",
"A.b.A.A.b.A.b.A.A.Z.A.A.b.A.b.A.9.a b.S.Z.A.Z.Z.Z.b.A.b.A.A.b.A.b.A.A.Z.A.A.Z.Z.b.A.A.b.A.Z.b.A.Z.A.",
"Z.A.A.b.A.Z.Z.A.b.Z.b.A.A.Z.Z.Z.d.r.b.Z.Z.b.A.b.Z.A.Z.A.b.Z.A.A.Z.A.b.Z.b.A.A.b.A.Z.Z.Z.b.A.A.A.A.b."
};
