/* XPM */
static char *d2FsbDIu[] = {
/* columns rows colors chars-per-pixel */
"50 50 134 2 ",
"   c gray42",
".  c #706F6D",
"X  c #767675",
"o  c #797977",
"O  c #7E7D7B",
"+  c #81807E",
"@  c #858483",
"#  c #8A8686",
"$  c #8A8987",
"%  c #8C8C8A",
"&  c #908F8D",
"*  c #91918F",
"=  c #949492",
"-  c #989795",
";  c #999896",
":  c #9D9C9B",
">  c #A09F9D",
",  c #A1A09E",
"<  c #A5A4A2",
"1  c #A8A7A5",
"2  c #A9A8A6",
"3  c #ACACAA",
"4  c #B1ADAC",
"5  c #B1B0AE",
"6  c #B5B4B2",
"7  c #B8B7B5",
"8  c #B9B8B6",
"9  c #BCBCBA",
"0  c #C0BFBD",
"q  c #C1C0BE",
"w  c #C5C4C3",
"e  c #C8C7C5",
"r  c #C8C7C5",
"t  c #C8C8C6",
"y  c #C9C8C6",
"u  c #C9C9C7",
"i  c #C9C8C6",
"p  c #C8C8C8",
"a  c gray79",
"s  c #CACAC8",
"d  c #CBCAC8",
"f  c #CBCBC9",
"g  c #CACACA",
"h  c #CBCBCB",
"j  c #CCCBC9",
"k  c #CCCCCA",
"l  c #CDCCCA",
"z  c #CDCDCB",
"x  c #CECDCB",
"c  c gray80",
"v  c #CDCDCD",
"b  c #CECECC",
"n  c #CFCECC",
"m  c #CFCFCD",
"M  c #CECECE",
"N  c gray81",
"B  c #CDCCCA",
"V  c #D0CFCD",
"C  c #D0CFCD",
"Z  c #D0D0CE",
"A  c #D1D0CE",
"S  c #D1D1CF",
"D  c #D2D1CF",
"F  c #D1D1CF",
"G  c #D0D0D0",
"H  c gray82",
"J  c #D2D2D0",
"K  c #D3D2D0",
"L  c #D3D3D1",
"P  c #D2D2D2",
"I  c LightGray",
"U  c #D4D3D1",
"Y  c #D4D4D2",
"T  c #D5D4D2",
"R  c #D5D5D3",
"E  c #D6D5D3",
"W  c gray83",
"Q  c #D5D5D5",
"!  c #D6D6D4",
"~  c #D7D6D4",
"^  c #D7D7D5",
"/  c gray84",
"(  c #D5D4D2",
")  c #D8D7D5",
"_  c #D8D7D5",
"`  c #D8D8D6",
"'  c #D9D9D7",
"]  c #DAD9D7",
"[  c #D9D8D6",
"{  c #DADAD8",
"}  c #DBDAD8",
"|  c #DBDBD9",
" . c #DADADA",
".. c #DCDBD9",
"X. c #DCDCDA",
"o. c #DEDDDB",
"O. c #DDDDDD",
"+. c #DCDCDA",
"@. c #E0DFDD",
"#. c #E0DFDD",
"$. c #E0E0DE",
"%. c #E1E0DE",
"&. c #E1E1DF",
"*. c #E2E1DF",
"=. c #E1E1DF",
"-. c gray88",
";. c #E1E1E1",
":. c gray89",
">. c #E4E3E1",
",. c #E5E4E2",
"<. c #E6E5E3",
"1. c gray90",
"2. c #E7E7E5",
"3. c #E6E6E6",
"4. c #E7E7E7",
"5. c #E5E4E2",
"6. c #E8E7E5",
"7. c #E8E7E5",
"8. c #E9E9E7",
"9. c #E9E8E6",
"0. c #E9E9E9",
"q. c #EBEBE9",
"w. c #ECECEA",
"e. c #EDECEA",
"r. c #EDEDEB",
"t. c #EEEEEC",
"y. c #EFEFED",
"u. c #EEEEEE",
"i. c #ECECEA",
"p. c #F0EFED",
"a. c #F0EFED",
"s. c #F1F1EF",
"d. c #F4F3F1",
"f. c #F3F2F0",
/* pixels */
"< & * * @ % $ $ % = = % % = = % = % = % * ; ; * = ; $ & * * : = = = = = * * * * % = ; - = ; : : 2 o ",
"@ + ; < , 2 2 < : < < < < 2 < : < < < < , < ; % @ = - , 2 , 3 , < < 2 < 1 1 < 2 < < < < , : % o 5 + ",
"= : G O.;.3.;.-.;.:.;.-.-.:.:.:.:.:.;.:.2.&.M 8 3 J $.y.s.9.r.9.w.q.w.w.q.w.t.t.q.q.2.q.r.&.8 = 6 @ ",
"$ = / / / W h h g M M M v M v h g a a v R N 7 : & t ' $.%.D D T L S R ! R R ! ! ! S Z ' &.R 2 + 5 @ ",
": < 3./ W G p h M M c M M M M c M g g v Q G 8 : * D o._ _ d x T S S z z z z z z S Z Z S X.Z 3 % 7 $ ",
"= ; 3.w a p w a M g M M M M g M P G h c H a 5 ; * _ o.Z _ x D ..J R J R J S S J ! ! S S S w 2 & 6 @ ",
"; = u.p H H h / g p g M M g p g M v h h v w 3 = * ..} j ..D Z T J R R J R R J J R ! R ! S w < & 5 @ ",
"= = u.p H H p v M p p M M p g M h c v G H p 5 : % o...j o.T x Z Z Z J J J J J R Z S S ! ! q 2 + 5 @ ",
"% : :.h p g v p p g v g g M M g q d d q q q 4 = & } *.q y _ C l J R S f f J R J D _ q q U q 1 + 6 @ ",
", ,  .9 5 p v G P I P v M G G Q ~ T n q q 0 3 = * Z _ q y _ D D J ! { { { { ! J ..*.q q q q 1 > 7 @ ",
"= % p 6 3 5 6 9 9 9 6 6 6 9 6 9 0 0 7 4 4 4 1 > % 8 q 3 8 q 8 q 9 8 9 0 9 7 8 9 q q q 4 4 4 > + 6 @ ",
": % 9 3 2 < : : : : : < < < < : ; , , , , , 1 , * 2 1 , 2 2 , 1 < < < 3 < , , 2 ; > 3 2 1 4 2 + 7 $ ",
"; X = % @ @ @ % % % % @ @ @ @ % + & & + + & + & % * % % % $ + % + * + + + + + + + + + + + + > + 6 $ ",
"< % p 9 p c g a a g 9 < = 2 9 q d q d d x q q q q q q q q d y q q q 5 ; 2 9 E q E q U _ q q q > 6 $ ",
"= = O.;.;.1.1.-. .:.H < : 6 / O.*.%.%.%.*.*.*.*.*.*.*.*.%.*.*.*.2.{ 8 + > z 2.,.q.*.e.t.,.e.>.+ 6 $ ",
": < 1.O.G W / / Q :./ < ; 9 O.:.%.~ x x K K E K ~ K K E d K ~ n X.{ 0 ; 3 X.q.^ *.q A E U ,.U + 6 @ ",
": : t.^ | R $.^ ' X.u 5 * q X.S ~ ~ E E ~ ~ ~ ~ A x x U _ .._ U o.q 7 + 4 <.~ .._ ] T #.....q + q + ",
"; : w.L R S ' R S R t 2 % q &.R K U U x A A A U A U U C x x C A #.q 7 + 1 >.T T ~ ] A T U ..C + 6 + ",
"; : t.R R m { ! ' $.f 3 % q &.m ~ K A n x A U U E ~ ~ A A q C E ] q q + 1 7...T ] o.U C C #...+ 6 + ",
"; : y.! ' S { R Y X.f 3 % q X.s n n U K U U U U U U E U U A U ~ ~ A q + , 7.o.U T o.~ U U ,.~ + 0 + ",
"- : t.^ | L { S q u 9 2 % w { m q x E ~ ] ~ ~ U U U U _ _ E A x q q 7 + 1 ,.] K q #...] T #.T + 4 + ",
": : q.J ' L ' f q t 9 5 = 9 m q q q q U U U U q A C C q E U q q q 7 7 + 1 o.q q q T ~ >.T ~ ] + 6 + ",
", = R 9 q q w 7 9 9 7 5 * 3 6 5 7 6 7 7 0 0 7 0 0 0 0 0 0 7 7 6 4 4 7 ; > q q 7 q 7 8 q 8 q q + q + ",
"= + 9 ; , < 2 : , , : < + - , : , ; - - = - - ; * * : ; = - - > , ; , + + 2 + , , > + 4 + 2 2 + 6 + ",
": o : % * = = = * * * * = = = = + - ; * & - * + + = + : = + ; - + > + + > + + > + > ; ; + ; ; + 6 + ",
": % k k Y | R b Y L ! ! R ! ! ^ ] ] ] D D D q 1 * 4 q U _ C _ D A K #.] ] #.U T #.q T q #.q 4 + 0 + ",
"= = X.$.5.2.X.R | ' | | | | | X.o.o.o.} *.*.q 1 + q _ %.*.....D _ ~ ] #.] #.] o...~ o.#.>.q 4 + 4 + ",
", : 5.$.` ` J b n n n n m m S m q q C q } o.q , * C ..U U q D q A q q q q q q q q q q q _ ~ 7 + 6 + ",
", , 2.` S R R R U U U U E E E ~ ] D q ~ _ U 0 > - ] %.q C U _ C T K q K U q U _ #.} U q ~ q 4 + q + ",
"= : &.! k S S k D D U K U U U U D D D D U q 4 : + U D q C D D q ~ _ K q q U q ..q q q _ q q > + 6 + ",
": < w.X.J R R S D K D U U U U U D T T D _ U 0 , - ] T q _ U q D T q q K ~ q U q q q _ ~ T q 4 + 5 + ",
"; : 5.J f R R J n n A A A x D D T T U T ] U 4 = & ] U q T D q ~ q q U _ q T q q } T ~ q q q 1 + q + ",
"* < 2.t 9 q | { R R $.q 2.F E ! s Y R f w q 5 : = J J 6 q S k Y b m m m Y L m b E { q 8 q 7 , + 5 + ",
"; < X.q 8 q q q m q q 0 ! q q q 9 w w 9 8 7 3 : = w w 3 8 w 9 t q w w w q q q q 0 q 7 7 9 3 1 + q + ",
"* % 9 2 3 6 5 8 7 5 5 5 q 7 8 6 3 7 7 5 5 5 3 , % 3 3 : 2 3 < 3 2 2 3 5 5 3 3 3 3 8 5 6 5 5 3 = 4 + ",
"; O : % & * + & * + * * = + - + $ % % % $ * * @ $ = * % - * % * $ % % % % % % % + - + + + + = + 0 + ",
"; @ 3 , 2 2 > < 3 1 , : + * < 1 2 2 , , 2 3 2 2 , , : : < , : : 2 < ; % % ; < , 1 1 > , 1 3 3 + 4 + ",
"* % m Y &.&.| &.o.o.q 7 * 7 _ #.2.&.&.&.&.*.&.&.q.1.2.q.q.8.2.:.&.| 9 ; , w | ^ o...] %.%.%.T * q + ",
"* ; 2.X.X.R b J o.o.U 5 + q <.#.$.X.' ' { X.X.X.R J ! ` J ! { J 5.$.9 = ; J 8.' _ T D ..T ~ q + q + ",
"% , 2.^ m b m ' q _ q q + q q.T X.^ R L ^ ^ ^ ^ ! ! X.X.J { $.! ^ $.0 = < $.r.Z } T T ..q E K + q + ",
"+ - e.] ..q ~ ~ o.U 7 > + _ e.] ! D x n L ^ ^ ' ..] E E ~ ~ E D %._ 0 - 3 ..] ~ T D E ] T D q + 7 + ",
"- ; a._ q q ~ } ~ U 7 : + q ,.T _ [ T T ^ ^ | ^ U K K U ~ ~ ~ E o.q 4 + 1 o.o.] K K q T D T q * q + ",
"* > d._ } q ..q U ..q > + T 7.q [ [ } [ ! T ! ^ T U T _ } } ] _ ] E 0 + 1 %.o.q q T q T q ] T + 7 + ",
"+ > d.q ~ o.7.q q ] q > + q 9._ C U _ _ L D L L ....} o.o.} E A o.q q + 1 o.o.q D _ _ _ ..#.T + q + ",
"; > e.q } ~ } q q q q , - q o.q n K ~ _ E _ E ..] ..] ] _ T x r q q q + 1 q E q q ~ ~ o._ #.q + 6 + ",
"> - *.q q q q q 7 7 4 1 - q q q q d d d x q l q q C q q x x r r q q 0 , 3 q q q q q q q q q q = q + ",
"> + q > 4 1 4 , , 1 1 1 + 4 q 2 1 , 3 4 4 4 4 4 4 4 0 1 0 4 4 4 4 6 1 + 1 4 > 3 1 , , 5 , 3 5 + 5 + ",
"; . : + - + + - + + + - + + - + & & + + * + & + + & + + + + # # + + - + + + + - + + + ; + + : + q + ",
"1 6 7 4 5 5 4 5 0 4 4 0 4 4 0 4 4 4 0 4 4 4 4 4 4 4 4 4 4 4 4 4 q 4 q 4 4 q 4 6 q 4 4 q 4 4 q 4 q + ",
"+ + - + + * + + + * + + + + + = + + - + # # # # # # # # & # # # + + + - + + + + - + + + + + + + = . "
};
