/* XPM */
static char *d2FsbF81MHg1MC4_[] = {
/* columns rows colors chars-per-pixel */
"50 50 127 2 ",
"   c #2D242A",
".  c #352C2F",
"X  c #362C33",
"o  c #382E36",
"O  c #3A3136",
"+  c #3D333A",
"@  c #40373E",
"#  c #42393E",
"$  c #413740",
"%  c #453B42",
"&  c #483F46",
"*  c #493F48",
"=  c #4A4145",
"-  c #4D444A",
";  c #51474E",
":  c #52494E",
">  c #554B52",
",  c #584F55",
"<  c #5A5156",
"1  c #5D545A",
"2  c #60575D",
"3  c #62595E",
"4  c #615760",
"5  c #655C62",
"6  c #685E66",
"7  c #695F68",
"8  c #6A6166",
"9  c #6D646A",
"0  c #70676D",
"q  c #72696E",
"w  c #716770",
"e  c #756C72",
"r  c #786F74",
"t  c #7A7176",
"y  c #7E747A",
"u  c #80777C",
"i  c #837A7E",
"p  c #867C82",
"a  c #887F84",
"s  c #8B8285",
"d  c #8D848A",
"f  c #90878C",
"g  c #92898E",
"h  c #938A8F",
"j  c #91888D",
"k  c #948B8E",
"l  c #958C8D",
"z  c #968D8E",
"x  c #978E8F",
"c  c #938A8D",
"v  c #918790",
"b  c #928890",
"n  c #938991",
"m  c #948B90",
"M  c #948A92",
"N  c #958B93",
"B  c #958C91",
"V  c #968D90",
"C  c #968D92",
"Z  c #978E93",
"A  c #968C94",
"S  c #978D95",
"D  c #968C92",
"F  c #988F94",
"G  c #988E96",
"H  c #998F97",
"J  c #988F94",
"K  c #999093",
"L  c #9A9192",
"P  c #9B9293",
"I  c #999095",
"U  c #9A9194",
"Y  c #9B9295",
"T  c #9A9196",
"R  c #9B9297",
"E  c #9D9495",
"W  c #9D9497",
"Q  c #9E9596",
"!  c #9A9195",
"~  c #9A9098",
"^  c #9B9199",
"/  c #9C9398",
"(  c #9C929A",
")  c #9D939B",
"_  c #9D9499",
"`  c #9E9598",
"'  c #9E959A",
"]  c #9F969B",
"[  c #9F959D",
"{  c #9D949A",
"}  c #A0979C",
"|  c #A0969E",
" . c #A1979F",
".. c #A0979C",
"X. c #A2999A",
"o. c #A1989D",
"O. c #A2999E",
"+. c #A39A9F",
"@. c #A2999E",
"#. c #A49BA0",
"$. c #A59CA1",
"%. c #A69DA2",
"&. c #A79EA3",
"*. c #A59BA2",
"=. c #A89FA5",
"-. c #A9A0A5",
";. c #AAA1A6",
":. c #ABA2A7",
">. c #AAA1A6",
",. c #AAA0A8",
"<. c #ACA3A8",
"1. c #ADA4A9",
"2. c #AEA5AA",
"3. c #AEA4AC",
"4. c #AFA5AD",
"5. c #ACA3A9",
"6. c #B0A7AC",
"7. c #B1A8AD",
"8. c #B2A9AE",
"9. c #B3AAAF",
"0. c #B3AAAF",
"q. c #B1A7B0",
"w. c #B4ABB0",
"e. c #B6ADB2",
"r. c #B7ADB6",
"t. c #B8AEB7",
"y. c #BDB3BC",
/* pixels */
"y p h I Z D D ' %.<.6.1.:.:.:.-.+.O./ %.q - p / / F @.#.' %.:./ F I } ' i 3 s B d d j j d p i < , u ",
"I I I o.#.o.' ' / ] +.O.O.O.} ' ] ' Z O.9 = u R ' ' } O.#.>.:.#.} #.$.F 8 = s 2.O.#.-.} O.' I 3 5 g ",
"I D m D I F D Z m F / Y / ' ' Y Z / B ' 8 = i F } O.R C R / T T j I #.I 5 O y -.F B / B I / B : < a ",
"s a a a p u y p s f m j f j m m m Z m Y 5 % u F } } d u p p y p s p j B 9 # t ' d i s j I R h - < a ",
"s p u y u t e q r i p i t t i p j Z g F 5 % u F ] T y q r r e y F s p s q = i +.d e i B } I h : 3 s ",
"s t q r p p t 9 e t y r e e t i a m j F 3 % u Z T d y e r y i s F s d f 8 % y +.h q y I I d f : < p ",
"y q 9 e y u y t t i t r e r t y y s s C 3 % i F T a y y y p d d f s f f 8 # r F B e a I I j j , 3 s ",
"p y y y t r t u i r e 9 9 e r e t a s B 3 & p / T p y p y i d p B s f s 8 % y F d e a m d d m : 3 f ",
"d j m m h f s s s f y s d p d i s R j F 5 # s R j j k j j j j C C R +.g q O t / B s d B g Z p 3 < p ",
"q q q q 8 5 1 1 > 1 1 1 , - , : < 1 > 8 < - t t y y y y t r e e 8 1 : 1 5 = < : 3 < 3 5 8 r t 5 : q ",
"# = + % + + + O + = + + O X + + + . . # + + = O + O + O + O . . O # + = =   O O # + + + X O @ X O - ",
", 1 1 1 8 8 8 8 t 1 + 1 9 r r e y r i y q e q 5 5 3 3 3 3 5 5 3 < : + > 3 < 3 < < 1 3 1 , > > : : : ",
"] ] -.-.6.0.e.e.+.q = t Q -.] $.#.#.7.-.@.;.#.%.2.:.&.#.#.@.+.+.R q % t 6.0.8.:.%.:.1.1.,.*. .*./ / ",
"R R R / / / ] ` l 3 + y U ] C ] C g B g C _ C F ] _ R F C C C T f 5 + 8 :.+.%.%.O.#.O.O. .A v ^ ' R ",
"` R F F F F R / d 8 + y f U g R ] ] F _ ] T j j j B C B j d j j ] 9 + 1 8.%._ s p j j B ~ v v *.R F ",
"m j d s f m ` #.f 9 % r s ] C I c R B R } j j j B L ] L d p p s f 9 % < -.] O.f 9 t i p a y r v R B ",
"v d p u u d A [ A 1 ; e M N v ^ c l R l d ] F f k f L d i s i s i 5 * > 3.| A p y u p a p y y a v v ",
"d p w 7 w u v H v , $ w N d i d s l X.P C I k L l f f f s s s s v 5 $ 1 3.[ d u y p v a y w y p v v ",
"u r 7 7 4 w u v A 7 % w G e 9 e y i p i s s s H l x s s s i i s a 1 o 7 ,.[ a d p a S S u y a v v d ",
"u u y r w w u s a r = w d w 9 e q 8 8 8 y s u p s Q k j l s l l u 7 * r | [ d A H v S [ v p d ~ A A ",
"7 4 7 4 1 1 4 5 7 7 * > 8 > > > : - : ; 1 5 > ; , 7 5 4 3 5 9 8 2 2 % 4 8 8 3 5 7 1 1 4 , > > , 4 4 ",
"$ $ $ + o X o o $ ; o o + o + o # O $ + o + + + +   $ + . O O O o % X % + + O O + * $ o $ $ $ + $ $ ",
", 1 , 4 1 1 1 1 > , , , 1 3 3 3 , # 1 e 7 9 e r w $ 1 9 6 0 1 6 2 8 3 7 5 5 5 3 ; 4 ; * , * + 1 , , ",
"v N ^  .-.-.*.| ,.[ *.*.] U h j 3 % y y.y.t.r.q.d + 9 M ~ &.m >.#.%.] -.:.%.%.' G v p d v > * d ( ( ",
"d v C R R T T T Q X.L Y C h Z i 1 o 4 N I Z x L 7 $ w v *.,. .,.#.#.&.%.+.@.@.%.` X.X.X.t : = s [ ( ",
"p d C T / F F F L Q x P I B U s 4 + 4 M s y y i 7 + 7 a *.,.G H c l L R ' ' ` L c l l z t < = l  . .",
"s d j j d s y y p s s z Z U ] s 1 o 4 M s e r i w + 4 p [ | d p i i s l L L c a f a s l t < = i [ ^ ",
"s d d s i t q 9 r i i l Z U ] s 1 X 4 G d r t s w + 5 p ( H u y s s c l V f i y a i t s t < = i | | ",
"s s s s p i y y q i i l x x P i 1 X 2 I s r t s 9 O 8 i ^ M y y s l z L s s t t y t t s t < - s B B ",
"s s s s s s s s y i p l l l z i < X 1 C l t i s q O 8 s ^ v u p s l L L l i i i u u i f r < - l p p ",
"s s s i i i t t i i i s s s x i < . < c l s s l q . 8 s R z u a s s z z s s s i s s s l r : = j s a ",
"s i i i i u t q i i t i i s L s 3 O 1 f l l s s q O 8 s ' K p a t i s s s s i y i s s f t > - l s a ",
"i l s i y y i i i s d d f h C C 0 O 8 i C s t R e + 8 u -.' / O.R } F d v v v d v s ~ d y , * ~ p u ",
"i i t r t r r 9 q r y i y i s d 3 O q g @.R s f q - i l -.B s p s s a d G v v v G v H p y 4 * a v p ",
"1 < = # = = = = + = = - = = = - < X > 1 3 3 8 5 < # 8 < < = # # * % $ * ; * % * % % ; ; 4 1 ; y 4 4 ",
". O = = % + + = # = = + + + + + % # % X O O # X = . - O O O # + o + + + + + o + $ $ + o $ $   $ o X ",
"= < d %.Q Q l U I I B I P P Z Z s f q : r p i p u r s i i s y 2 , e p y y p p p p p a u d v p v u y ",
": , d 1.2.w.-.1.-.$.] ] +.#.+.] -.h 3 O y #.} -.:.%.1.-.$.O.s : , a =. .| *.=.+. .,.*.}  . .~ ~ ) S ",
"8 1 s X.X.1.] +.' R Y I I I Z Z j 8 1 # r ] g f h f s s p d y - ; y ) ' ~ ~ ~ F G ^ ~ F A v v v v p ",
"3 , l %.] +.c h B I Z I Z I U ' h < 5 = 2 g B F f f p p y p t : , y A R ~ G ~ } F ' B B j a a u v a ",
"< < s +.+.u i m d d d d j Z ] ] d 8 1 % 5 B ] h t y t t y a u ; < r B / Q L L X.A d s f f s p p v a ",
"> < d ' ' a i a a s a s s f Z / B 0 3 # 3 g I d p p p p p p r % , t B F Q X.L l a a p s p p p s v a ",
": 1 d C C p y r i p a a a s g Z I r 5 # 5 j h s u u u v d p y ; : y l f F X.L i y y u i i i s s v p ",
": 1 s g d t q 9 t y p s s s g I g r 3 # 8 h g s y y y v v a y > , y B l l F s t r t y y y i p s v a ",
"; , a f a 9 5 8 9 w y a a a s m d q 3 # w Z d a u u p v d p r ; < y L x l s y t r t t t t u i u v p ",
": , a f p 9 6 9 5 7 e u i u i a s q 3 % e I s i a a p v a a u > , y L L l i y y t y t e r y u t p p ",
": 2 a s p r e r q q r u p u u a s r 3 % r / s s p a a s a d p > : i X.l s s s i t s i t e y i t p u ",
"> 3 d a a p p t p y u d d a a d s r 3 $ t } v v p s a d p a u ; : s X.j s l l s i s d u t y i i p u ",
"4 5 4 , * * * - ; - - - > > > ; ; ; ; > > > ; ; ; ; , ; ; ; ; , > < > - : , ; ; * - ; ; * > 1 , 4 7 ",
"$ $ $ + + $ $ $ % % $ % % * % % + o o o + + + $ + $ $ + + + $ $ % = # @ % % % % * * * * $ * * % + $ "
};
