/* XPM */
static char *d2FsbDEu[] = {
/* columns rows colors chars-per-pixel */
"50 50 169 2 ",
"   c #0C0515",
".  c #130C1C",
"X  c #160F21",
"o  c #1B0E24",
"O  c #1D0E29",
"+  c #1B1324",
"@  c #1A1923",
"#  c #1D1229",
"$  c #201526",
"%  c #22132C",
"&  c #231A2C",
"*  c #251631",
"=  c #261A33",
"-  c #291B34",
";  c #2C1D3A",
":  c #301F3F",
">  c #272030",
",  c #2A2034",
"<  c #2E223C",
"1  c #302536",
"2  c #32233D",
"3  c #342A3D",
"4  c #392D3E",
"5  c #2F1E42",
"6  c #301F41",
"7  c #2F2141",
"8  c #342542",
"9  c #392646",
"0  c #362A43",
"q  c #3A2C45",
"w  c #362549",
"e  c #38274A",
"r  c #352A48",
"t  c #3B2C4A",
"y  c #373342",
"u  c #3C3246",
"i  c #3C3A46",
"p  c #3E324A",
"a  c #3F384A",
"s  c #3E2D51",
"d  c #3F3251",
"f  c #402F4F",
"g  c #423745",
"h  c #42344D",
"j  c #44394D",
"k  c #493D4E",
"l  c #402F51",
"z  c #453553",
"x  c #493655",
"c  c #463953",
"v  c #493A55",
"b  c #463559",
"n  c #49375B",
"m  c #473959",
"M  c #4C3B5B",
"N  c #513C5E",
"B  c #4D3C61",
"V  c #513F62",
"C  c #44404F",
"Z  c #474050",
"A  c #4B4254",
"S  c #4C4857",
"D  c #4E415B",
"F  c #4E4A59",
"G  c #504556",
"H  c #51425D",
"J  c #544C5C",
"K  c #55525E",
"L  c #59515F",
"P  c #4F4263",
"I  c #534463",
"U  c #5B4766",
"Y  c #564965",
"T  c #5A4A66",
"R  c #564569",
"E  c #58476B",
"W  c #5B4B6A",
"Q  c #565461",
"!  c #5B5263",
"~  c #5D546A",
"^  c #615364",
"/  c #61516E",
"(  c #635B6A",
")  c #6A5D6F",
"_  c #665C75",
"`  c #6E5F71",
"'  c #6C626D",
"]  c #6C6C6A",
"[  c #6E6173",
"{  c #716275",
"}  c #736A75",
"|  c #726378",
" . c #7E7D82",
".. c #807F84",
"X. c #828185",
"o. c #888886",
"O. c #848388",
"+. c #89878C",
"@. c #8D8D8D",
"#. c #8E908F",
"$. c #8F8C92",
"%. c #928C96",
"&. c #978D96",
"*. c #948F96",
"=. c #928D94",
"-. c #948E98",
";. c #978F9C",
":. c #988C9A",
">. c #9A8E9C",
",. c #8F9190",
"<. c #959097",
"1. c #919292",
"2. c #979098",
"3. c #9A959B",
"4. c #9E909F",
"5. c #948BA0",
"6. c #9D8EA1",
"7. c #9F91A0",
"8. c #9F94A4",
"9. c #9993A4",
"0. c #9D9BA6",
"q. c #9E95AA",
"w. c #9F98A8",
"e. c #A193A2",
"r. c #A294A3",
"t. c #A192A5",
"y. c #A395A4",
"u. c #A395A6",
"i. c #A297A7",
"p. c #A194A6",
"a. c #A496A5",
"s. c #A496A7",
"d. c #A399A2",
"f. c #A399A4",
"g. c #A199A7",
"h. c #A29AA7",
"j. c #A398A6",
"k. c #A698A7",
"l. c #A396A8",
"z. c #A597A8",
"x. c #A097AC",
"c. c #A198AB",
"v. c #A39AAB",
"b. c #A799A8",
"n. c #A79BA9",
"m. c #A799AA",
"M. c #A59DAC",
"N. c #A89AA9",
"B. c #A99BAB",
"V. c #A99BAC",
"C. c #AA9CAD",
"Z. c #AB9DAE",
"A. c #A49BB0",
"S. c #A79EB3",
"D. c #A69CB4",
"F. c #A59DB2",
"G. c #9FA0A2",
"H. c #A7A2A8",
"J. c #A2A0AC",
"K. c #AAA3AA",
"L. c #AAA5AB",
"P. c #A9A1AE",
"I. c #AAABAC",
"U. c #A5A3B0",
"Y. c #AEA0B1",
"T. c #ACA4B4",
"R. c #A9A9B3",
"E. c #B0A6BF",
"W. c #B4ACBB",
/* pixels */
"K.=.&.y.>.-.t.6.6.p.l.l.8.l.v.p.n.N.N.e.y.N.k.r.y.r.7.7.k.N.N.k.t.s.b.z.s.s.k.k.V.V.b.z.C.Y.Z.f.L...",
"&.} ' } ) ) | [ { [ [ [ [ [ ( ! J ^ ) ` { } { ` { ` ` { { { { { } { { { { { { { ` { ` ` { | { ( K.o.",
"2.( Z G v G I H I M v D D D i , : g M G H M N M M G N H H G N G H N b B H H N v v G M M H H v g 3.o.",
"v.( h k v v I H D m v m D D p - v H H N b v M B M G H H N M v N N b x b N H v v N v N H M H v p @.o.",
"A.! y c v v M M n n M n m m p 7 I I B l l b b b b B B B M n n n B b b b B B b b b v b b B b b e =.@.",
"D.~ t v v x b b b n B d d d r 7 B B B b b B b s b b b b x l l b n b b b b n b b b n B l b B l e -.=.",
"D.~ h H H b b v m n M m m d r < B V V B B B B b b b b b b b B b n n n n n n n B B B n B B B b s -.o.",
"v.! h H M h b M d z d z m c 0 < I E E B s l b b B b b b b B b b b n n b b b x x b b b s s B s t -.o.",
"w.L j k v v h v x x x h c Z u - H H N x x x N x b b x x x x x b x x h g h x x h v h x x x k x 4 -.,.",
"g.K g k k k h h g h v h c k 3 % H M M f h h z h l l x v M M v v h x v N v v x h v x v x v M M 4 &.@.",
"K.L g j k k g q g h v k A c y # H M x g h x x h x h z h g f q 2 4 f x h h g f g h g f g h k x 4 =.@.",
"K.L 4 4 4 4 : 2 f f f g u u 3 & h h f 2 f h h f z h h f f q 8 2 2 2 g g 4 2 4 x g 2 2 g g h h 4 $.o.",
"n.G , 1 3 8 : 2 % % O O # * # + & % % O % - ; - * - - ; - - - - & % O $ % O O $ % o % % $ * - . +.@.",
"T.! p c c M b n V N b n M D D P x N N M N V V V n n N V N N N N M z x M v h 2 : N x x x v N M g =.@.",
"E._ I Y Y E I E V V V V R R P P B V R I V V V V E E R V I V I V U H H T U v q 9 / Y U L I Y Y c &.@.",
"D.~ A I I M b b b b n B B M d d b V V B b b b b b b l b n b B B V x x N N f 9 9 V N N x z x z 3 &.@.",
"U.! h v c m b b b b m m m c a d b x x M M x x x x N x x x x x x n b N b M z 6 z U M b b b v b 0 &.@.",
"C.T g j c b z b b n d z d c c c z x x x x x x x x x x x x x x x x l M b b l 6 l V b z b b n b t 1.@.",
"P.! u j c v b b B b m b c c c v h v x M x x z z x x x M v x x x x f b x l t - e W M x x x b x q -.,.",
"P.! h c c M b M b b b c c c c c v x x x z z z z v M v v v v v x N z N x M l 6 l / M x b x x z 4 <.$.",
"P.! g h c x b b b b d b c d a c j z b c z h z p b c b c x v z j x h x h f f - f I x h x h M x 4 =.@.",
"U.! h c c v b M B B M m c c a a z v c c v c v x c v c c x x z f h g x h f f - g Y M x v v v x 4 =.@.",
"T.! g h z b z b b b m m c p y r h z z z c c c v z z z c z p t q x x v x x x : x Y v h v h f f , $.@.",
"P.J 4 q r r e s w e r r r 7 = = 2 8 0 0 e r r r r t t t 8 8 2 ; 9 ; 4 2 4 ; % : h 2 2 9 9 4 ; $ +.o.",
"U.G 1 2 ; 8 8 5 w 5 5 = = - = # # * = = = - 2 2 2 7 < 7 < < < < - - - - * * - - * * * - 2 2 1 & &.@.",
"W.( A J D I I E I E R P I I p ; * 0 M Y W T I N F I I I Y Y Y Y J H N H H H J H H H H H Y T H c =.@.",
"P.! k H v I I E P R P M Y Y u + r z D I I I H G M D D H D Y I Y I H H N N G H Y H N M G H H M j =.@.",
"P.J h c z M M B B P n p c D u # H H M z p z M N c b b v M M M M v v z z x x x v x v x x x N h q =.@.",
"W.! p k z M M b m B M d z A p ; D H H M x v v x x x h x c x v v v b b z z b b m v x x x M M b q =.@.",
"T.J y h p c b b s b n m c c u 2 M H N c x x x h x h x x z z z h z z z z z z b z h l l z b v b q =.@.",
"T.! j v c M M M b n M B M c 0 2 T U N v x x x x v N N v v M x x b b M M v b b b z b x b v M x q =.@.",
"P.L j Z z z z b B z d z a 0 2 1 k v M x x x x g x x x x x x x x z z b b v x z z z z z x b b z q =.@.",
"J.Q i S c j A c v v z h c j 0 # D A v v c c c c c a c d c v c a a a A z v D p c j j c M j c c y $.@.",
"J.K i S Z c v h q p h c v j 3 @ D D m a p p a d c c a c c c c c m c a y a c y c a p a a a c j 3 $.@.",
"L.Q y C j g k f 8 q h c D Z 0 , I D P c p d c D c d d d z c z z m a t < q h q h v h a c v D D 3 $.@.",
"w.F , , - : 2 : % * * * = ; * + ; < - = = = < 8 7 < < < < < < 8 8 - = # = < % = - # * = , 2 < + =.#.",
"w.J 3 y 0 q l 9 : f 6 : 7 q 0 2 8 8 7 8 9 t r r p t r t t t t h t 0 0 2 t t * = 9 2 8 3 r q t < $.@.",
"J.~ A Y I Y W N U W W U E T T Y E E I Y W / Y I I R E Y Y E Y E Y Y E H I H 8 8 W Y Y E Y W ~ H =.#.",
"5.Y j D c M Y x x N N N M M H M M M b b n b b z M B P I B B B B I B I M M x ; 6 Y M v b v I N p 1.$.",
"9.~ a c t h V N N N n x h M N H B B v z x b b m z b M B M b v M v M V z x z 5 8 W M b x M I M 0 =.$.",
"q.J c A x x x N x x x s s x x x b m b b c b x b b b z b b b m m z z v z l e ; z I V M b z M M 0 =.@.",
"q.H i c h x x x N N N N N x x x m n m b v b b b v m m b b m m m b b M x x t ; l W I H v z v M 0 =.@.",
"S.J p c z x x n s x x x x h f f z z z z b b z b z z z b z z d m b h z h x t ; r Y N v z f c z 2 -.,.",
"w.J j c h c v M x x x x x x x x c m m m v m m c m n v v m m M A z h b c M v 2 p Y N D v z v M h 1.=.",
"9.F a Z h h j v v z x z g h x v a c d c c a d c c c c z d d c d v h c h M c < q J v c c j c c y 1.,.",
"U.Q Z A j j c M j h h p f g g k v v m v m v m v m v m m P d c d v j c j c a < 0 Y v c j h h h 3 $.#.",
"R.K y i y u u q q h p u 0 0 q q d d a a a d a d a a c c a a d y a y p u j u , y D a p p u p u 1 +.@.",
"G.i @ @ @ & & + # # # @ + . . . . X X . X X X . X X X X X . .   .   . . X .   + > + + @ X @ + . o.@.",
"R.G.o. .O.O.X.X.O.O.O.X.O.X.X.X. . . . . . . . . . . . . . . . . . . . . . . . . ..... ..... ...I.o.",
"#.,.@.#.1.1.,.1.,.,.,.,.,.#.#.#.@.@.@.#.#.#.#.@.#.@.@.#.#.@.@.#.@.@.@.$.#.@.@.#.#.#.#.#.#.#.#.@.o.] "
};
